<svg width="582" height="536" viewBox="0 0 582 536" fill="none" xmlns="http://www.w3.org/2000/svg">
<path d="M547.635 175.023C542.292 182.058 536.936 189.106 531.593 196.141C530.705 180.623 526.264 165.338 518.762 151.911C515.195 161.841 507.119 169.887 497.444 173.124C500.806 106.615 453.375 45.3379 394.657 19.2615C335.939 -6.81479 268.762 -3.27693 206.519 11.3662C166.152 20.8597 125.923 35.2844 93.2776 61.8251C60.6321 88.3659 36.3496 128.635 35.8987 171.827C32.4141 165.106 28.9296 158.372 25.445 151.651C19.8424 163.03 17.2871 176.006 18.107 188.765C12.7777 181.061 7.43469 173.356 2.10538 165.652C-5.24633 213.748 7.94029 262.459 21.8238 308.97C34.4502 351.247 48.0878 393.933 72.097 430.432C96.1062 466.93 132.168 497.036 174.174 503.238L292.894 529C363.036 499.809 428.163 454.965 475.567 393.619C522.97 332.273 551.598 253.73 547.635 175.023Z" fill="#36393D"/>
<path d="M443.43 513.82C443.43 513.96 359.05 514.08 254.99 514.08C150.89 514.08 66.5298 513.96 66.5298 513.82C66.5298 513.68 150.89 513.56 254.99 513.56C359.05 513.56 443.43 513.68 443.43 513.82Z" fill="#36393D"/>
<path d="M305.83 341.61C303.9 335.48 301.98 329.36 300.05 323.23C298.54 318.41 297.13 312.76 300.06 308.64C301.2 307.04 302.93 305.8 303.51 303.93C304.28 301.49 302.84 298.97 302.12 296.52C300.53 291.06 302.53 285.3 303.51 279.69C304.49 274.09 303.9 267.27 299.07 264.27C296.72 262.82 293.74 262.55 291.55 260.86C288.43 258.46 287.9 254.08 286.38 250.45C284.5 245.97 280.76 242.31 276.25 240.53C271.74 238.75 266.5 238.86 262.07 240.85L258.1 243.84C252.87 258.79 252.35 274.96 252.94 290.79C253.53 306.62 255.18 322.47 254.05 338.27C253.62 344.28 252.96 350.91 256.52 355.77C259.75 360.18 265.52 361.77 270.89 362.79C276.25 363.81 281.73 364.54 287.17 364.05C292.61 363.56 298.05 361.78 302.21 358.24C304.71 356.11 306.75 353.25 307.17 349.99C307.55 347.15 306.68 344.33 305.83 341.61Z" fill="#263238"/>
<path d="M297.88 339.88L328.31 312.68C328.31 312.68 303.69 314.51 288.75 316.18L287.14 302.29C287.14 302.29 318.34 295.13 328.32 292.57C338.29 290.01 347.93 289.91 357.4 289.58C366.86 289.25 368.48 294.62 368.99 296.92C369.5 299.22 370.21 310.69 361.14 321.52C354.26 329.73 317.59 368.78 317.59 368.78L297.88 339.88Z" fill="#FFBE9D"/>
<path d="M352.6 305.99C352.62 306.02 352.37 306.29 351.88 306.77C351.64 307.01 351.33 307.3 350.95 307.6C350.57 307.91 350.16 308.28 349.65 308.62C348.66 309.35 347.41 310.12 345.96 310.85C344.5 311.56 342.83 312.23 341.02 312.73C339.2 313.22 337.43 313.49 335.81 313.62C334.19 313.72 332.72 313.7 331.5 313.57C330.89 313.53 330.34 313.43 329.86 313.36C329.38 313.29 328.97 313.2 328.64 313.12C327.97 312.96 327.61 312.85 327.62 312.82C327.64 312.72 329.12 313.07 331.54 313.21C332.75 313.29 334.19 313.27 335.79 313.15C337.38 312.99 339.12 312.71 340.9 312.23C342.68 311.73 344.32 311.09 345.77 310.42C347.21 309.72 348.46 309 349.46 308.32C351.44 306.96 352.53 305.91 352.6 305.99Z" fill="#EB996E"/>
<path d="M137.61 286.33C137.61 286.33 133.28 289.69 131.39 296.59C128.62 306.71 139.21 316.37 139.21 316.37C139.21 316.37 185.1 360.21 185.41 360.83C185.72 361.45 196.91 328.18 196.91 328.18L169.24 308.59C169.24 308.59 184.27 309.02 192.87 309.21C202.17 309.41 214.91 311.42 214.91 311.42V294.32C214.9 294.33 152.53 279.18 137.61 286.33Z" fill="#FFBE9D"/>
<path d="M143.1 307.69C143.09 307.68 143.16 307.59 143.31 307.45C143.46 307.31 143.72 307.12 144.09 306.95C144.82 306.61 146.03 306.4 147.45 306.72C148.87 307.01 150.38 307.79 152.14 308.28C153.91 308.79 155.92 309.08 158.05 309.14C162.31 309.23 166.18 308.7 168.99 308.53C170.39 308.42 171.53 308.36 172.32 308.33C173.11 308.3 173.54 308.31 173.55 308.34C173.55 308.38 173.12 308.44 172.34 308.53C171.45 308.63 170.34 308.75 169.03 308.89C166.23 309.16 162.37 309.75 158.04 309.66C155.88 309.6 153.81 309.29 152.01 308.74C150.2 308.2 148.71 307.39 147.37 307.07C146.03 306.72 144.89 306.86 144.17 307.13C143.44 307.4 143.13 307.73 143.1 307.69Z" fill="#EB996E"/>
<path d="M363.35 321.47L328.31 312.68L298.44 333.78C298.44 333.78 293.38 330.74 290.39 332.12C287.4 333.5 281.67 337.64 281.67 337.64L271.67 332.4L234.13 335.16L227.15 341.23C227.15 341.23 225.69 337.64 223.43 339.3C221.16 340.96 219.27 340.68 219.27 340.68C219.27 340.68 217.02 334.33 212.33 331.85C207.64 329.37 197.48 325.55 195.77 325.96C194.05 326.37 182.07 314.96 182.07 314.96L174.59 309.39C174.59 309.39 136.5 313.62 135.95 316.37C135.4 319.12 144.92 333.34 146.86 333.34L153.26 335.44C153.26 335.44 154.98 343.17 160.75 348.41C166.51 353.65 186.11 367.09 186.11 367.09C186.11 367.09 177.18 422.93 172.95 433.14C168.72 443.35 165.41 456.6 166.51 469.3C167.61 482 172.95 518.43 172.95 518.43L201.29 509.6L313.07 506.29L334.32 511.26C334.32 511.26 332.94 481.45 331.84 465.44C330.74 449.43 329.36 416.03 324.66 396.16C319.97 376.29 321.07 367.09 321.07 367.09C321.07 367.09 355.57 334.33 358.33 329.92C361.1 325.5 364.48 324.57 363.35 321.47Z" fill="#FF7C53"/>
<g opacity="0.3">
<path d="M301.19 398.02C301.19 398.02 313.36 419.45 314.32 431.58C315.28 443.72 304.48 463.37 304.48 463.37L293.56 447.57L301.19 398.02Z" fill="black"/>
</g>
<g opacity="0.3">
<path d="M212.11 396.34C201.19 406.4 194.87 420.38 189.02 434.02C183.37 447.19 177.84 460.57 175.45 474.71C173.07 488.8 173.91 503.43 177.9 517.16L222.89 500.56L219.11 445.04L212.11 396.34Z" fill="black"/>
</g>
<path d="M205.39 465.8L219.11 445.04L293.56 447.57L304.48 463.37L254.89 495.03L205.39 465.8Z" fill="#262E2F"/>
<path d="M238.27 344.27L229.55 358.56C229.55 358.56 229.56 369.88 227.52 374.68C225.48 379.48 211.83 396.68 211.83 396.68L219.1 445.04C219.1 445.04 251.82 471.21 293.55 447.58L301.18 398.02C301.18 398.02 293.68 387.66 288.05 382.49C282.42 377.32 279.04 364.44 278.03 357.3L274.37 346.02C274.38 346.02 248.15 355.62 238.27 344.27Z" fill="white"/>
<path d="M273.66 406.3C272.49 405.46 270.1 405.55 268.65 405.43C263.53 404.27 258.96 400.4 253.66 400.3C250.75 400.25 247.96 401.35 245.26 402.43C241.78 403.83 238.29 405.23 234.9 406.84C233.99 407.27 233.06 407.74 232.38 408.48C231.7 409.22 231.3 410.32 231.64 411.27C231.99 412.24 233.03 412.84 234.06 412.95C235.09 413.07 236.12 412.79 237.11 412.49C242.21 410.97 247.32 408.84 252.63 409.18C258.28 409.54 263.45 412.68 269.08 413.21C270.38 413.33 271.72 413.31 272.93 412.81C274.14 412.32 275.18 411.29 275.41 410C275.66 408.61 274.84 407.15 273.66 406.3ZM268.66 405.43L270.95 405.74C270.17 405.71 269.41 405.6 268.66 405.43Z" fill="#F5F5F5"/>
<path d="M248.6 400.87C248.62 400.9 248.34 401.11 247.82 401.47C247.3 401.83 246.52 402.3 245.52 402.83C243.52 403.89 240.59 405.06 237.2 405.74C233.8 406.41 230.64 406.43 228.4 406.22C227.28 406.11 226.37 405.98 225.75 405.84C225.13 405.71 224.8 405.62 224.8 405.59C224.82 405.5 226.19 405.74 228.42 405.86C230.65 405.98 233.75 405.9 237.1 405.24C240.44 404.57 243.34 403.47 245.36 402.51C247.38 401.53 248.55 400.79 248.6 400.87Z" fill="#263238"/>
<path d="M238.44 445.87C238.38 445.98 236.27 444.63 234.56 442.12C232.83 439.62 232.33 437.17 232.46 437.16C232.61 437.11 233.32 439.42 234.99 441.83C236.64 444.25 238.54 445.74 238.44 445.87Z" fill="#263238"/>
<path d="M269.31 413.91C269.3 413.94 268.84 413.79 268.03 413.5C267.22 413.2 266.04 412.77 264.58 412.28C261.66 411.31 257.54 410.07 252.86 409.74C250.52 409.6 248.29 409.75 246.29 410.1C245.79 410.2 245.31 410.3 244.84 410.4C244.37 410.51 243.93 410.66 243.5 410.79C242.62 411.01 241.86 411.37 241.14 411.64C239.74 412.26 238.62 412.83 237.89 413.29C237.15 413.73 236.72 413.96 236.7 413.93C236.68 413.9 237.06 413.61 237.78 413.12C238.48 412.6 239.58 411.98 240.99 411.31C241.71 411.02 242.48 410.63 243.37 410.38C243.81 410.25 244.26 410.09 244.73 409.96C245.21 409.85 245.7 409.75 246.2 409.63C248.23 409.25 250.51 409.08 252.89 409.22C257.66 409.56 261.8 410.87 264.7 411.94C266.15 412.48 267.31 412.96 268.1 413.32C268.89 413.66 269.32 413.87 269.31 413.91Z" fill="#263238"/>
<path d="M228.86 360.29C228.82 360.29 228.79 359.72 228.72 358.69C228.65 357.66 228.55 356.16 228.35 354.33C228.23 353.42 228.17 352.38 227.9 351.37C227.76 350.87 227.54 350.37 227.16 350.01C226.78 349.64 226.26 349.43 225.69 349.4C224.54 349.35 223.35 349.87 222.26 350.6C221.15 351.28 219.91 352.17 218.34 352.15H217.85L218.14 351.75C218.16 351.72 218.19 351.68 218.22 351.64C221.5 346.95 225.02 343.12 227.73 340.55C229.09 339.26 230.23 338.27 231.04 337.6C231.85 336.94 232.32 336.6 232.34 336.62C232.36 336.65 231.94 337.04 231.18 337.75C230.41 338.46 229.31 339.49 228 340.81C225.36 343.44 221.91 347.28 218.66 351.94C218.63 351.98 218.61 352.01 218.58 352.05L218.37 351.64C219.71 351.66 220.89 350.87 222.01 350.17C223.13 349.44 224.42 348.85 225.74 348.93C226.4 348.97 227.05 349.23 227.5 349.69C227.96 350.14 228.19 350.72 228.34 351.27C228.6 352.37 228.64 353.38 228.74 354.31C228.9 356.16 228.94 357.67 228.95 358.7C228.93 359.71 228.9 360.29 228.86 360.29Z" fill="#263238"/>
<path d="M219.11 386.8C219.12 386.81 218.96 387.05 218.64 387.48C218.29 387.95 217.81 388.58 217.22 389.37C215.96 391 214.19 393.39 212.01 396.35C207.71 402.31 201.9 410.66 196.43 420.44C193.68 425.33 191.25 430.08 189.19 434.48C187.16 438.89 185.41 442.9 184.07 446.33C183.37 448.03 182.79 449.59 182.27 450.95C181.74 452.31 181.31 453.49 180.96 454.46C180.62 455.39 180.34 456.13 180.14 456.68C179.95 457.19 179.84 457.45 179.82 457.44C179.8 457.43 179.88 457.16 180.04 456.64C180.22 456.08 180.46 455.33 180.77 454.39C181.09 453.41 181.49 452.22 181.99 450.85C182.48 449.47 183.04 447.9 183.72 446.19C185.01 442.74 186.73 438.71 188.74 434.27C190.78 429.85 193.21 425.07 195.96 420.17C201.45 410.36 207.32 402.02 211.7 396.11C213.92 393.17 215.74 390.82 217.04 389.23C217.67 388.46 218.17 387.85 218.54 387.4C218.91 387 219.1 386.79 219.11 386.8Z" fill="#263238"/>
<path d="M198.85 374.38C198.82 374.37 198.95 373.83 199.21 372.86C199.34 372.37 199.51 371.78 199.74 371.1C199.97 370.42 200.21 369.64 200.54 368.8C201.15 367.1 202.01 365.13 203.04 362.98C204.1 360.84 205.35 358.53 206.8 356.19C209.72 351.51 212.82 347.59 215.21 344.89C216.4 343.54 217.4 342.47 218.12 341.76C218.83 341.05 219.24 340.66 219.26 340.69C219.29 340.71 218.93 341.14 218.26 341.9C217.59 342.65 216.64 343.75 215.49 345.13C213.18 347.88 210.15 351.82 207.25 356.47C205.81 358.8 204.55 361.08 203.48 363.2C202.43 365.33 201.55 367.27 200.89 368.95C200.54 369.78 200.27 370.54 200.02 371.21C199.76 371.88 199.56 372.46 199.41 372.93C199.08 373.87 198.89 374.39 198.85 374.38Z" fill="#263238"/>
<path d="M201.14 338.34C201.17 338.36 200.87 338.77 200.32 339.49C199.76 340.2 198.98 341.26 198.04 342.57C196.16 345.2 193.74 348.97 191.54 353.39C189.35 357.82 187.81 362.02 186.85 365.11C186.37 366.66 186 367.92 185.77 368.79C185.53 369.66 185.38 370.15 185.35 370.14C185.32 370.13 185.4 369.64 185.58 368.75C185.75 367.86 186.06 366.58 186.5 365.01C187.37 361.88 188.87 357.62 191.08 353.16C193.3 348.71 195.78 344.94 197.75 342.35C198.73 341.05 199.56 340.03 200.17 339.36C200.77 338.68 201.12 338.32 201.14 338.34Z" fill="#263238"/>
<path d="M188.63 320.69C188.65 320.7 188.6 320.84 188.49 321.09C188.39 321.35 188.23 321.73 187.96 322.19C187.44 323.11 186.52 324.38 185.07 325.63C183.62 326.87 181.67 328.07 179.37 329.08C177.07 330.1 174.45 330.94 171.67 331.72C166.1 333.27 160.91 334.02 157.14 334.31C155.26 334.47 153.73 334.5 152.67 334.52C151.61 334.52 151.03 334.5 151.03 334.46C151.03 334.42 151.61 334.37 152.66 334.31C153.71 334.23 155.23 334.14 157.1 333.94C160.84 333.56 165.99 332.76 171.52 331.21C174.28 330.43 176.89 329.6 179.17 328.63C181.45 327.66 183.38 326.52 184.83 325.34C187.76 322.96 188.52 320.6 188.63 320.69Z" fill="#263238"/>
<path d="M281.67 337.65C281.7 337.64 281.91 338.09 282.24 338.91C282.57 339.74 283.03 340.94 283.55 342.44C284.59 345.45 285.87 349.66 287 354.38C287.46 356.29 287.86 358.14 288.19 359.84L288.35 360.64L287.78 360.06C286.55 358.83 285.38 357.72 284.15 357.01C283.54 356.65 282.91 356.43 282.32 356.2C281.73 355.99 281.18 355.82 280.67 355.76C279.63 355.61 278.91 356.14 278.57 356.57C278.21 357.01 278.09 357.3 278.05 357.28C278.04 357.27 278.06 357.2 278.12 357.06C278.17 356.92 278.28 356.72 278.44 356.47C278.62 356.24 278.86 355.94 279.25 355.73C279.63 355.52 280.15 355.4 280.7 355.45C281.25 355.49 281.83 355.65 282.44 355.85C283.04 356.05 283.71 356.27 284.36 356.64C285.67 357.35 286.89 358.48 288.13 359.7L287.71 359.92C287.36 358.23 286.95 356.39 286.49 354.48C285.37 349.77 284.15 345.56 283.2 342.53C282.74 341.09 282.35 339.89 282.05 338.95C281.77 338.13 281.64 337.66 281.67 337.65Z" fill="#263238"/>
<path d="M302.46 352.52C302.38 352.53 302.2 351.49 301.89 349.82C301.57 348.15 301.09 345.85 300.42 343.34C299.75 340.83 299.02 338.6 298.46 336.99C297.9 335.38 297.54 334.39 297.61 334.36C297.67 334.33 298.16 335.28 298.81 336.86C299.46 338.44 300.25 340.68 300.93 343.2C301.6 345.73 302.03 348.06 302.26 349.75C302.48 351.45 302.53 352.51 302.46 352.52Z" fill="#263238"/>
<path d="M307.9 354.07C307.81 354.08 307.66 352.83 307.22 350.87C306.78 348.9 305.98 346.23 304.69 343.44C303.39 340.66 301.85 338.32 300.63 336.72C299.41 335.11 298.55 334.2 298.62 334.14C298.65 334.11 298.88 334.32 299.29 334.72C299.7 335.11 300.26 335.72 300.92 336.5C302.23 338.06 303.84 340.4 305.17 343.23C306.48 346.06 307.24 348.8 307.59 350.81C307.77 351.81 307.87 352.63 307.91 353.2C307.93 353.75 307.94 354.07 307.9 354.07Z" fill="#263238"/>
<path d="M323.39 344.35C323.42 344.36 323.34 344.8 323.16 345.57C322.99 346.35 322.75 347.47 322.52 348.87C322.04 351.67 321.62 355.58 321.39 359.91C321.17 364.25 321.14 368.18 321.18 371.02C321.2 372.36 321.23 373.49 321.24 374.39C321.26 375.19 321.25 375.63 321.22 375.63C321.18 375.63 321.12 375.2 321.04 374.4C320.96 373.61 320.87 372.45 320.81 371.03C320.67 368.18 320.64 364.23 320.86 359.88C321.1 355.53 321.57 351.6 322.15 348.8C322.42 347.4 322.72 346.28 322.96 345.51C323.2 344.76 323.35 344.34 323.39 344.35Z" fill="#263238"/>
<path d="M356.28 332.24C356.27 332.28 355.7 332.21 354.66 332.06C353.53 331.88 352.06 331.65 350.27 331.37C346.57 330.77 341.46 329.9 335.82 328.91C333 328.42 330.3 327.96 327.9 327.22C325.5 326.51 323.44 325.51 321.9 324.4C320.35 323.3 319.32 322.13 318.72 321.26C318.41 320.83 318.21 320.47 318.09 320.22C317.97 319.97 317.91 319.84 317.92 319.83C318.01 319.74 319 321.99 322.11 324.09C323.64 325.14 325.67 326.08 328.03 326.75C330.39 327.44 333.08 327.89 335.9 328.38C341.54 329.37 346.64 330.29 350.32 330.99C352.09 331.34 353.56 331.62 354.68 331.84C355.72 332.07 356.28 332.21 356.28 332.24Z" fill="#263238"/>
<path d="M304.48 461.87C304.47 461.87 304.52 461.77 304.61 461.6C304.72 461.4 304.85 461.14 305.03 460.82C305.41 460.15 305.93 459.13 306.61 457.83C307.93 455.21 309.72 451.33 311.44 446.38C312.27 443.89 313.1 441.13 313.67 438.11C314.2 435.11 314.65 431.72 313.64 428.45C312.44 425.18 311.42 421.66 310.24 418.08C309.08 414.49 307.45 410.93 305.77 407.29C304.07 403.66 302.25 400.19 300.18 397.04C299.15 395.46 298.07 393.96 296.91 392.56C295.76 391.16 294.52 389.9 293.35 388.6C291 386.03 288.77 383.59 286.68 381.3C285.59 380.17 284.9 378.77 284.25 377.5C283.61 376.2 283.06 374.94 282.57 373.71C280.62 368.81 279.45 364.69 278.81 361.82C278.48 360.38 278.29 359.25 278.17 358.49C278.12 358.13 278.08 357.84 278.06 357.62C278.04 357.42 278.03 357.32 278.04 357.32C278.05 357.32 278.07 357.42 278.11 357.61C278.15 357.83 278.21 358.12 278.28 358.47C278.42 359.23 278.65 360.35 279.01 361.77C279.71 364.62 280.93 368.71 282.92 373.57C283.42 374.78 283.98 376.04 284.62 377.32C285.28 378.59 285.94 379.92 287.01 381.02C289.11 383.29 291.34 385.72 293.7 388.27C294.86 389.56 296.13 390.83 297.3 392.25C298.47 393.66 299.57 395.18 300.61 396.76C302.7 399.94 304.54 403.43 306.24 407.07C307.93 410.71 309.56 414.3 310.72 417.92C311.9 421.53 312.9 425.03 314.09 428.3C315.14 431.75 314.63 435.16 314.09 438.19C313.5 441.24 312.65 444.01 311.79 446.51C310.01 451.48 308.17 455.33 306.79 457.94C306.08 459.23 305.53 460.24 305.12 460.89C304.93 461.2 304.78 461.45 304.66 461.64C304.55 461.79 304.49 461.87 304.48 461.87Z" fill="#263238"/>
<g opacity="0.3">
<path d="M292.11 365.96C290.86 357.93 288.09 350.14 283.99 343.13C285.08 348.67 286.87 354.36 287.96 359.9C285.76 357.08 279.47 353.6 278.05 357.31L278.6 360.26C282.73 361.64 286.45 364.21 289.2 367.58C289.68 368.17 290.28 368.84 291.03 368.74C292.12 368.59 292.28 367.06 292.11 365.96Z" fill="black"/>
</g>
<g opacity="0.3">
<path d="M298.51 334.3C297.77 335.81 298.48 337.58 299.09 339.14C300.54 342.8 301.51 346.66 301.96 350.57C302.13 352.02 302.26 353.56 303.15 354.72C304.04 355.88 306 356.32 306.92 355.19C307.5 354.46 307.43 353.42 307.3 352.5C306.33 345.81 303.52 339.39 299.26 334.13" fill="black"/>
</g>
<g opacity="0.3">
<path d="M319.24 321.49C319.57 323.66 320.97 325.56 322.7 326.9C324.44 328.24 326.5 329.09 328.57 329.82C336.45 332.62 345.12 333.99 353.19 331.8C347.31 330.83 341.42 329.86 335.54 328.88C332.51 328.38 329.46 327.87 326.57 326.82C323.68 325.77 320.94 324.13 319.04 321.72" fill="black"/>
</g>
<g opacity="0.3">
<path d="M218.72 340.63C210.43 345.79 203.49 353.08 198.73 361.61C197.81 363.25 196.98 364.94 196.31 366.7C195.86 367.88 195.71 369.59 196.89 370.04C198.01 370.46 199.01 369.25 199.6 368.21C205.15 358.49 211.67 349.32 219.03 340.88" fill="black"/>
</g>
<g opacity="0.3">
<path d="M228.79 366.57C228.74 362.45 228.7 358.33 228.65 354.21C228.63 352.34 228.29 350.67 226.76 349.61C225.64 348.83 224.51 349.13 223.27 349.71C222.04 350.29 220.83 351.1 219.83 351.54L219.56 351.67C218.25 353.44 217.27 355.46 216.7 357.6C218.14 357.6 219.42 356.74 220.73 356.15C222.04 355.56 223.76 355.29 224.79 356.29C225.48 356.96 225.65 357.99 225.78 358.94C226.41 363.47 227.03 368 227.66 372.53C228.8 370.81 228.82 368.62 228.79 366.57Z" fill="black"/>
</g>
<g opacity="0.3">
<path d="M152.31 334.63C160.04 337.49 168.86 337.26 176.42 333.99C180.77 332.11 184.92 328.97 186.39 324.46C175.95 330.58 164.68 333.4 152.62 334.47" fill="black"/>
</g>
<path d="M162.75 333.31C162.66 333.32 162.46 331.97 161.87 329.87C161.28 327.77 160.2 324.93 158.47 322.08C156.73 319.23 154.71 316.97 153.12 315.47C151.53 313.97 150.42 313.18 150.47 313.1C150.49 313.07 150.78 313.25 151.3 313.59C151.82 313.93 152.53 314.47 153.37 315.2C155.05 316.64 157.15 318.91 158.92 321.81C160.68 324.71 161.72 327.63 162.23 329.78C162.49 330.86 162.64 331.74 162.7 332.35C162.77 332.97 162.79 333.31 162.75 333.31Z" fill="white"/>
<path d="M179.33 326.97C179.24 326.99 178.98 325.79 178.25 323.97C177.53 322.15 176.25 319.74 174.31 317.46C172.36 315.19 170.18 313.54 168.5 312.55C166.82 311.55 165.67 311.1 165.71 311.01C165.72 310.98 166.02 311.06 166.54 311.25C167.07 311.43 167.81 311.76 168.68 312.23C170.44 313.16 172.71 314.8 174.7 317.13C176.68 319.46 177.94 321.97 178.58 323.85C178.9 324.79 179.12 325.57 179.21 326.12C179.33 326.65 179.37 326.96 179.33 326.97Z" fill="white"/>
<path d="M190.8 351.47C190.78 351.5 190.39 351.32 189.69 350.96C188.99 350.6 187.99 350.05 186.77 349.35C184.34 347.94 181.05 345.85 177.59 343.3C174.13 340.74 171.17 338.21 169.1 336.3C168.07 335.34 167.25 334.55 166.7 333.99C166.15 333.43 165.86 333.1 165.88 333.08C165.9 333.05 166.24 333.33 166.84 333.85C167.51 334.44 168.35 335.17 169.34 336.04C171.46 337.88 174.45 340.35 177.89 342.89C181.33 345.43 184.57 347.56 186.95 349.05C188.07 349.75 189.02 350.33 189.78 350.8C190.46 351.19 190.82 351.44 190.8 351.47Z" fill="white"/>
<path d="M202.53 337.17C202.46 337.3 197.94 334.97 192.43 331.98C186.92 328.99 182.51 326.46 182.58 326.33C182.65 326.2 187.17 328.53 192.68 331.52C198.19 334.51 202.6 337.04 202.53 337.17Z" fill="white"/>
<path d="M207.33 355.47C207.2 355.59 205.18 352.62 201.44 350.48C197.73 348.29 194.15 347.99 194.19 347.82C194.19 347.76 195.08 347.75 196.49 348.03C197.89 348.3 199.8 348.93 201.7 350.03C203.6 351.14 205.08 352.49 206.01 353.58C206.95 354.66 207.38 355.44 207.33 355.47Z" fill="white"/>
<path d="M215.49 345.34C215.4 345.35 215.35 344.42 214.97 343.01C214.6 341.6 213.79 339.71 212.4 337.97C211 336.23 209.34 335.03 208.05 334.35C206.76 333.67 205.86 333.42 205.89 333.33C205.9 333.28 206.83 333.4 208.21 334.02C209.58 334.63 211.35 335.84 212.81 337.65C214.25 339.46 215.04 341.46 215.33 342.93C215.63 344.4 215.54 345.34 215.49 345.34Z" fill="white"/>
<path d="M196.4 381.65C196.32 381.69 195.91 380.99 195.08 380.01C194.25 379.02 192.95 377.79 191.25 376.79C189.55 375.8 187.83 375.27 186.57 375.03C185.3 374.79 184.49 374.77 184.49 374.68C184.49 374.63 185.31 374.51 186.63 374.66C187.95 374.81 189.75 375.31 191.52 376.33C193.28 377.36 194.6 378.7 195.37 379.77C196.15 380.85 196.45 381.62 196.4 381.65Z" fill="white"/>
<path d="M218.27 387.46C218.26 387.53 217.1 387.44 215.23 387.16C213.37 386.88 210.8 386.39 208.02 385.66C205.23 384.93 202.76 384.1 201 383.42C199.24 382.75 198.18 382.25 198.21 382.19C198.24 382.12 199.34 382.49 201.13 383.07C202.92 383.65 205.39 384.42 208.16 385.15C210.93 385.88 213.46 386.42 215.3 386.8C217.13 387.17 218.28 387.38 218.27 387.46Z" fill="white"/>
<path d="M228.03 367.61C228.03 367.65 227.69 367.66 227.07 367.67C226.45 367.68 225.56 367.63 224.47 367.52C222.28 367.3 219.27 366.73 216.1 365.58C212.94 364.42 210.26 362.91 208.45 361.67C207.54 361.05 206.83 360.51 206.37 360.11C205.9 359.71 205.65 359.48 205.68 359.45C205.73 359.38 206.81 360.21 208.66 361.36C210.51 362.52 213.17 363.95 216.29 365.09C219.41 366.23 222.37 366.85 224.53 367.16C226.67 367.46 228.03 367.52 228.03 367.61Z" fill="white"/>
<path d="M235.36 347.71C235.29 347.76 234.9 347.22 234.14 346.5C233.38 345.78 232.19 344.93 230.71 344.36C229.22 343.8 227.76 343.66 226.72 343.71C225.67 343.75 225.03 343.91 225.01 343.82C224.99 343.77 225.61 343.48 226.7 343.34C227.78 343.2 229.33 343.28 230.9 343.87C232.47 344.46 233.7 345.42 234.41 346.24C235.13 347.05 235.41 347.68 235.36 347.71Z" fill="white"/>
<path d="M199.13 412.59C199.12 412.62 198.79 412.54 198.22 412.35C197.64 412.17 196.83 411.85 195.83 411.41C193.85 410.54 191.2 409.09 188.57 407.07C185.95 405.04 183.87 402.85 182.52 401.16C181.84 400.31 181.33 399.6 181 399.09C180.67 398.58 180.5 398.29 180.53 398.27C180.6 398.22 181.38 399.3 182.79 400.92C184.2 402.54 186.29 404.65 188.87 406.66C191.46 408.65 194.04 410.13 195.96 411.08C197.92 412.03 199.16 412.51 199.13 412.59Z" fill="white"/>
<path d="M184.47 440.27C184.43 440.33 183.71 439.91 182.62 439.15C181.52 438.39 180.05 437.27 178.52 435.92C176.99 434.57 175.68 433.26 174.79 432.27C173.89 431.28 173.39 430.62 173.44 430.58C173.55 430.48 175.82 432.86 178.87 435.53C181.9 438.2 184.56 440.14 184.47 440.27Z" fill="white"/>
<path d="M175.38 473.24C175.34 473.29 174.62 472.82 173.59 471.89C172.56 470.97 171.24 469.56 170.01 467.84C168.78 466.12 167.85 464.44 167.24 463.21C166.63 461.97 166.32 461.18 166.38 461.15C166.54 461.07 168.03 464.14 170.44 467.54C172.83 470.95 175.48 473.12 175.38 473.24Z" fill="white"/>
<path d="M320.95 373.39C320.97 373.42 320.55 373.7 319.77 374.18C319 374.67 317.83 375.31 316.36 376.03C314.89 376.76 313.08 377.5 311.03 378.21C308.97 378.89 306.66 379.53 304.2 379.99C301.73 380.43 299.35 380.67 297.18 380.76C295.01 380.83 293.05 380.77 291.42 380.62C289.79 380.48 288.47 380.29 287.57 380.11C286.67 379.94 286.18 379.82 286.18 379.79C286.19 379.75 286.69 379.8 287.6 379.91C288.5 380.03 289.82 380.16 291.44 380.25C293.06 380.36 295.01 380.37 297.15 380.28C299.3 380.16 301.65 379.92 304.1 379.48C306.54 379.02 308.83 378.41 310.87 377.76C312.91 377.08 314.72 376.38 316.2 375.7C317.68 375.03 318.87 374.44 319.67 374.01C320.47 373.58 320.93 373.36 320.95 373.39Z" fill="white"/>
<path d="M290.26 361.7C290.31 361.82 287.84 362.81 284.6 363.05C281.36 363.31 278.76 362.7 278.8 362.58C278.82 362.42 281.4 362.79 284.56 362.53C287.72 362.3 290.21 361.55 290.26 361.7Z" fill="white"/>
<path d="M301.38 349.56C301.37 349.65 300.46 349.57 299.02 349.69C297.58 349.8 295.59 350.18 293.56 351.06C291.54 351.94 289.9 353.13 288.83 354.11C287.76 355.08 287.19 355.8 287.12 355.74C287.08 355.71 287.54 354.91 288.58 353.84C289.61 352.77 291.26 351.49 293.35 350.58C295.44 349.68 297.51 349.34 298.99 349.32C300.49 349.3 301.39 349.51 301.38 349.56Z" fill="white"/>
<path d="M305.79 345.86C305.87 345.97 305.05 346.64 303.8 346.8C302.55 346.97 301.58 346.53 301.64 346.41C301.68 346.26 302.61 346.44 303.74 346.29C304.86 346.14 305.72 345.73 305.79 345.86Z" fill="white"/>
<path d="M325.57 326.3C325.6 326.32 325.37 326.6 324.95 327.09C324.53 327.58 323.89 328.25 323.07 329.06C321.43 330.67 319.03 332.78 316.16 334.81C313.28 336.84 310.5 338.4 308.43 339.4C307.4 339.9 306.54 340.28 305.95 340.52C305.35 340.76 305.02 340.87 305 340.84C304.97 340.76 306.25 340.16 308.26 339.07C310.28 337.99 313.01 336.39 315.86 334.38C318.71 332.37 321.13 330.33 322.82 328.79C324.51 327.25 325.52 326.25 325.57 326.3Z" fill="white"/>
<path d="M344.57 331.14C344.6 331.16 344.43 331.59 344.08 332.38C343.74 333.17 343.19 334.28 342.44 335.62C340.95 338.3 338.56 341.83 335.34 345.24C332.11 348.64 328.72 351.23 326.13 352.86C324.84 353.68 323.76 354.3 322.99 354.67C322.23 355.06 321.8 355.26 321.78 355.22C321.76 355.18 322.16 354.93 322.89 354.49C323.62 354.06 324.67 353.4 325.93 352.55C328.45 350.85 331.77 348.24 334.97 344.88C338.16 341.5 340.57 338.04 342.13 335.43C342.91 334.13 343.51 333.05 343.9 332.29C344.3 331.53 344.54 331.12 344.57 331.14Z" fill="white"/>
<path d="M345.64 317.42C345.7 317.43 345.64 318.26 345.24 319.55C344.85 320.84 344.06 322.56 342.78 324.18C341.5 325.8 340.01 326.98 338.85 327.66C337.69 328.35 336.89 328.6 336.87 328.54C336.77 328.39 339.89 327.05 342.37 323.86C344.91 320.7 345.48 317.36 345.64 317.42Z" fill="white"/>
<path d="M296.37 335.7C296.36 335.79 295.53 335.67 294.19 335.7C292.86 335.73 291.02 335.96 289.11 336.64C287.2 337.33 285.63 338.32 284.59 339.14C283.54 339.96 282.97 340.58 282.91 340.52C282.87 340.49 283.34 339.78 284.35 338.86C285.36 337.94 286.96 336.86 288.93 336.15C290.91 335.44 292.83 335.26 294.19 335.33C295.57 335.4 296.39 335.64 296.37 335.7Z" fill="white"/>
<path d="M283.81 345.99C283.71 346.11 282.35 345.02 280.39 344.19C278.44 343.35 276.71 343.12 276.73 342.97C276.73 342.84 278.56 342.83 280.6 343.71C282.64 344.57 283.91 345.9 283.81 345.99Z" fill="white"/>
<path d="M325.76 401.73C325.78 401.76 325.56 401.94 325.14 402.25C324.72 402.56 324.08 402.97 323.27 403.43C321.65 404.35 319.26 405.4 316.47 406.07C313.68 406.73 311.08 406.88 309.21 406.79C308.28 406.75 307.52 406.67 307.01 406.58C306.49 406.5 306.21 406.43 306.22 406.4C306.23 406.31 307.37 406.43 309.22 406.42C311.06 406.41 313.62 406.21 316.35 405.56C319.08 404.9 321.45 403.93 323.1 403.1C324.74 402.27 325.71 401.65 325.76 401.73Z" fill="white"/>
<path d="M328.58 426.41C328.62 426.45 328.06 427.1 326.96 427.93C325.86 428.76 324.19 429.72 322.17 430.36C320.15 430.99 318.23 431.16 316.85 431.11C315.47 431.06 314.64 430.86 314.65 430.8C314.65 430.63 318.07 431.13 322.01 429.86C325.97 428.64 328.48 426.26 328.58 426.41Z" fill="white"/>
<path d="M331.32 461.57C331.33 461.61 330.99 461.7 330.38 461.85C329.77 462 328.87 462.16 327.75 462.29C325.51 462.57 322.36 462.63 318.94 462.09C315.52 461.54 312.55 460.49 310.51 459.52C309.49 459.04 308.68 458.61 308.15 458.27C307.61 457.94 307.32 457.74 307.34 457.71C307.38 457.63 308.6 458.31 310.66 459.18C312.72 460.05 315.66 461.02 319.02 461.57C322.38 462.1 325.48 462.1 327.71 461.92C329.94 461.75 331.31 461.48 331.32 461.57Z" fill="white"/>
<path d="M332.71 485.6C332.73 485.63 332.4 485.84 331.79 486.18C331.19 486.53 330.27 486.98 329.12 487.47C326.82 488.46 323.48 489.49 319.67 489.95C315.86 490.39 312.37 490.15 309.91 489.72C308.68 489.51 307.69 489.29 307.02 489.08C306.35 488.89 305.98 488.76 305.99 488.73C306.01 488.64 307.51 489.03 309.97 489.36C312.42 489.69 315.86 489.87 319.62 489.44C323.37 488.99 326.68 488.03 328.99 487.14C331.3 486.24 332.66 485.52 332.71 485.6Z" fill="white"/>
<path d="M269.57 247.01C268.44 244.56 266.55 242.32 263.98 241.5C261.42 240.67 258.19 241.66 257.07 244.11L263.11 250.92C263.73 251.9 264.56 252.79 265.63 253.27C266.69 253.75 268.01 253.75 268.97 253.09C269.88 252.46 270.35 251.32 270.37 250.21C270.39 249.1 270.03 248.02 269.57 247.01Z" fill="#FF7C53"/>
<path d="M286.38 277.89C285.34 266.34 279.24 255.12 269.46 248.89C259.68 242.66 246.31 242.04 236.52 248.25C230.3 252.2 225.83 258.54 223.25 265.45C220.68 272.36 221.79 278.08 221.85 285.45C221.88 289.27 222.37 299.53 225.66 301.46L277.09 310.69C283.69 301.15 287.42 289.44 286.38 277.89Z" fill="#263238"/>
<path d="M284.57 269.04C283.42 262.18 276.71 255.51 271.49 250.91C265.53 245.66 264.69 245.9 256.75 245.7C248.38 245.49 239.23 245.52 232.69 250.76C229.07 253.66 226.72 257.85 224.83 262.09C220.47 271.89 221.14 283.08 222.47 293.72C223.8 304.36 226.06 314.41 234.77 320.66L271.38 314.99C279.46 312 282.15 302.77 284.43 294.47C286.72 286.16 285.99 277.53 284.57 269.04Z" fill="#263238"/>
<path d="M223.73 275.87C224.24 265.8 234.96 255.62 245 256.56L277.59 262.35L277.55 267.76L274.39 346.01C248.65 355.84 238.28 344.27 238.28 344.27L240.08 327.78C240.08 327.78 227.2 325.8 224.33 309.06C222.91 300.74 223.16 287.06 223.73 275.87Z" fill="#FFBE9D"/>
<path d="M231.21 288.31C231.18 289.45 232.12 290.41 233.31 290.45C234.49 290.5 235.48 289.62 235.5 288.48C235.53 287.34 234.59 286.38 233.4 286.33C232.22 286.29 231.24 287.17 231.21 288.31Z" fill="#263238"/>
<path d="M228.02 284.13C228.29 284.41 229.91 283.18 232.22 283.16C234.53 283.11 236.24 284.28 236.49 283.99C236.61 283.86 236.33 283.36 235.59 282.83C234.86 282.3 233.61 281.8 232.17 281.82C230.73 281.85 229.52 282.39 228.83 282.94C228.12 283.49 227.88 284 228.02 284.13Z" fill="#263238"/>
<path d="M253.24 288.31C253.21 289.45 254.15 290.41 255.34 290.45C256.52 290.5 257.51 289.62 257.53 288.48C257.56 287.34 256.62 286.38 255.43 286.33C254.25 286.29 253.26 287.17 253.24 288.31Z" fill="#263238"/>
<path d="M251.15 283.56C251.42 283.84 253.04 282.61 255.35 282.59C257.66 282.54 259.37 283.71 259.62 283.42C259.74 283.29 259.47 282.79 258.72 282.26C257.99 281.73 256.74 281.23 255.3 281.25C253.86 281.28 252.65 281.82 251.96 282.37C251.25 282.93 251.02 283.44 251.15 283.56Z" fill="#263238"/>
<path d="M241.93 300.37C241.94 300.24 240.5 300.01 238.16 299.74C237.57 299.69 237.01 299.58 236.9 299.17C236.76 298.74 237 298.1 237.27 297.41C237.81 295.97 238.37 294.47 238.96 292.89C241.31 286.45 243 281.16 242.74 281.07C242.48 280.98 240.36 286.12 238.01 292.56C237.45 294.15 236.9 295.66 236.39 297.11C236.17 297.78 235.8 298.55 236.11 299.43C236.27 299.87 236.71 300.18 237.09 300.28C237.47 300.39 237.8 300.39 238.1 300.41C240.46 300.51 241.92 300.51 241.93 300.37Z" fill="#263238"/>
<path d="M240.08 327.82C240.08 327.82 251.94 328.37 263.04 321.52C263.04 321.52 257.52 333.33 240.14 332L240.08 327.82Z" fill="#EB996E"/>
<path d="M242.97 305.94C243.79 304.83 245.24 304.21 246.69 304.35C247.7 304.45 248.72 304.92 249.34 305.73C249.96 306.54 250.1 307.7 249.56 308.49C248.95 309.38 247.64 309.59 246.54 309.29C245.43 308.99 244.47 308.27 243.56 307.56C243.31 307.36 243.05 307.16 242.89 306.88C242.73 306.61 242.69 306.25 242.88 306.02" fill="#EB996E"/>
<path d="M242.81 309.52C243.14 309.7 244.19 307.42 246.89 306.69C249.59 305.96 251.9 307.33 252.07 307.02C252.17 306.89 251.73 306.33 250.72 305.83C249.73 305.33 248.11 304.98 246.46 305.43C244.81 305.88 243.69 306.97 243.18 307.87C242.65 308.78 242.65 309.46 242.81 309.52Z" fill="#263238"/>
<path d="M259.9 278.35C259.86 277.68 257.56 277.3 255.06 276.21C252.53 275.17 250.66 273.78 250.15 274.21C249.92 274.42 250.11 275.1 250.79 275.94C251.46 276.77 252.63 277.73 254.14 278.37C255.65 279.01 257.15 279.19 258.22 279.09C259.29 279 259.91 278.67 259.9 278.35Z" fill="#263238"/>
<path d="M235.32 274.78C234.65 274.52 233.15 275.84 231.08 276.86C229.04 277.94 227.08 278.38 226.91 279.07C226.85 279.4 227.35 279.74 228.34 279.82C229.31 279.9 230.76 279.66 232.17 278.94C233.58 278.22 234.62 277.19 235.11 276.36C235.61 275.52 235.62 274.92 235.32 274.78Z" fill="#263238"/>
<path d="M235 251.89C228.82 256.07 224.55 262.96 222.48 270.51L223.5 276.71C224.95 273.71 225.13 270.49 228.09 267.41C230.08 265.34 233.76 263.39 237.67 262.4C248.84 259.56 252.61 255.5 257.54 248.2C250.3 246.39 241.17 247.71 235 251.89Z" fill="#263238"/>
<path d="M283.24 268.28C280.13 257.08 269.96 248.19 258.44 246.59L257.53 248.2C254.7 251.51 251.87 254.81 249.04 258.12C248.33 258.95 247.6 259.83 247.44 260.91C247.23 262.35 248.12 263.75 249.25 264.67C251.94 266.87 255.71 267.01 259.19 267.1C262.67 267.19 266.47 267.48 269 269.86C272.15 272.83 272.09 277.87 271.02 282.06C269.96 286.26 269.54 293.03 269.98 297.33C270.37 301.19 275.47 291.81 278.83 293.76C279.77 294.3 277.24 309.45 278.22 308.99C279.18 308.53 279.09 303.08 279.41 302.06C281.13 296.57 282.86 291.06 283.78 285.38C284.69 279.71 284.78 273.82 283.24 268.28Z" fill="#263238"/>
<path d="M276.39 303.8C276.44 303.77 276.56 303.94 276.86 304.1C277.15 304.26 277.65 304.38 278.2 304.22C279.32 303.89 280.35 302.22 280.52 300.36C280.61 299.42 280.47 298.51 280.19 297.75C279.93 296.97 279.47 296.41 278.93 296.28C278.39 296.12 277.98 296.42 277.84 296.7C277.68 296.98 277.73 297.19 277.68 297.2C277.65 297.22 277.47 297.01 277.58 296.59C277.64 296.39 277.77 296.15 278.03 295.97C278.29 295.78 278.66 295.71 279.04 295.77C279.83 295.88 280.5 296.66 280.81 297.5C281.17 298.34 281.34 299.37 281.24 300.42C281.04 302.5 279.84 304.37 278.32 304.7C277.58 304.84 276.99 304.58 276.69 304.32C276.4 304.05 276.36 303.82 276.39 303.8Z" fill="#EB996E"/>
<path d="M276.33 254.73C276.33 254.73 277.99 256.54 280.01 259.94C281.04 261.63 282.06 263.75 283.04 266.17C284 268.6 284.79 271.37 285.34 274.34C286.46 280.29 286 285.84 285.17 289.68C285.09 290.17 284.96 290.62 284.84 291.05C284.72 291.48 284.61 291.88 284.51 292.26C284.32 293.02 284.07 293.65 283.88 294.17C283.69 294.66 283.55 295.06 283.43 295.36C283.32 295.63 283.26 295.77 283.25 295.77C283.24 295.77 283.28 295.62 283.37 295.34C283.47 295.04 283.6 294.63 283.76 294.13C283.93 293.61 284.17 292.98 284.34 292.21C284.44 291.83 284.54 291.43 284.65 291C284.76 290.57 284.88 290.12 284.95 289.63C285.72 285.79 286.14 280.29 285.02 274.39C284.47 271.45 283.7 268.69 282.76 266.27C281.81 263.86 280.81 261.74 279.81 260.04C279.57 259.61 279.33 259.21 279.11 258.82C278.87 258.45 278.64 258.1 278.43 257.77C278.22 257.44 278.02 257.14 277.84 256.86C277.66 256.58 277.47 256.34 277.31 256.12C277 255.69 276.76 255.35 276.57 255.09C276.41 254.86 276.32 254.73 276.33 254.73Z" fill="#455A64"/>
<path d="M277.32 257.87C277.33 257.87 277.31 257.98 277.26 258.19C277.2 258.39 277.09 258.69 276.85 259.02C276.39 259.7 275.38 260.39 274.02 260.85C272.65 261.3 271.01 261.7 269.17 262.11C267.33 262.5 265.27 262.85 263.1 263C260.92 263.15 258.84 263.08 256.96 262.82C255.09 262.56 253.43 262.11 252.09 261.61C250.75 261.11 249.72 260.57 249.04 260.16C248.69 259.96 248.44 259.78 248.27 259.66C248.1 259.54 248.01 259.47 248.02 259.46C248.04 259.43 248.41 259.67 249.11 260.05C249.81 260.42 250.84 260.93 252.18 261.4C253.51 261.87 255.16 262.28 257.01 262.53C258.86 262.77 260.93 262.83 263.09 262.68C267.4 262.36 271.24 261.4 273.96 260.64C275.3 260.21 276.29 259.58 276.76 258.95C277.25 258.32 277.28 257.85 277.32 257.87Z" fill="#455A64"/>
<path d="M275.46 254.3C275.47 254.31 275.41 254.38 275.29 254.51C275.17 254.64 275 254.84 274.75 255.06C274.26 255.52 273.5 256.13 272.46 256.74C270.4 257.97 267.12 258.99 263.45 259.01C259.77 259.03 256.52 258.28 254.2 257.71C253.04 257.42 252.11 257.16 251.47 256.97C250.83 256.78 250.48 256.67 250.48 256.65C250.49 256.63 250.85 256.7 251.5 256.85C252.2 257.01 253.13 257.23 254.25 257.49C256.57 258 259.81 258.71 263.44 258.69C267.06 258.67 270.29 257.7 272.35 256.54C274.44 255.4 275.41 254.24 275.46 254.3Z" fill="#455A64"/>
<path d="M273.35 253.16C273.36 253.18 273.1 253.27 272.62 253.41C272.14 253.56 271.45 253.73 270.57 253.92C268.83 254.29 266.38 254.62 263.65 254.61C260.93 254.59 258.48 254.23 256.74 253.84C255.87 253.65 255.17 253.46 254.7 253.31C254.23 253.16 253.97 253.07 253.97 253.05C253.98 253.03 254.25 253.08 254.73 253.19C255.21 253.31 255.91 253.46 256.78 253.62C258.52 253.95 260.95 254.27 263.65 254.29C266.35 254.3 268.78 254.01 270.52 253.7C271.39 253.55 272.09 253.4 272.58 253.29C273.07 253.19 273.35 253.14 273.35 253.16Z" fill="#455A64"/>
<path d="M259.57 244.36C259.59 244.37 259.5 244.63 259.32 245.1C259.14 245.57 258.85 246.23 258.45 247.03C257.65 248.63 256.34 250.75 254.55 252.83C252.75 254.9 250.84 256.5 249.37 257.52C248.64 258.03 248.02 258.42 247.58 258.66C247.14 258.91 246.9 259.03 246.89 259.01C246.88 258.99 247.1 258.83 247.52 258.55C247.94 258.28 248.53 257.86 249.24 257.33C250.67 256.27 252.53 254.66 254.31 252.61C256.08 250.56 257.4 248.48 258.25 246.91C258.67 246.13 259 245.49 259.21 245.03C259.42 244.6 259.55 244.35 259.57 244.36Z" fill="#455A64"/>
<path d="M222.88 266.53C222.87 266.52 222.93 266.43 223.06 266.26C223.19 266.09 223.37 265.84 223.62 265.53C224.12 264.91 224.87 264.03 225.87 263.01C226.87 261.99 228.15 260.85 229.7 259.77C230.48 259.24 231.33 258.72 232.25 258.25C233.17 257.79 234.16 257.38 235.2 257.04C239.37 255.68 243.41 255.54 246.24 255.83C247.66 255.97 248.8 256.18 249.58 256.37C249.97 256.45 250.27 256.55 250.47 256.6C250.67 256.66 250.78 256.69 250.77 256.71C250.76 256.73 250.33 256.64 249.55 256.49C248.77 256.34 247.63 256.16 246.22 256.05C243.4 255.82 239.42 255.99 235.3 257.33C231.16 258.64 228.03 261.19 226.02 263.15C225 264.14 224.23 264.99 223.7 265.59C223.46 265.87 223.26 266.09 223.09 266.28C222.97 266.46 222.89 266.54 222.88 266.53Z" fill="#455A64"/>
<path d="M230.63 255.44C230.62 255.42 230.9 255.24 231.42 254.92C231.68 254.76 232 254.57 232.39 254.37C232.78 254.17 233.21 253.93 233.71 253.72C234.21 253.5 234.75 253.25 235.36 253.04C235.96 252.8 236.62 252.61 237.31 252.4C238.7 252.02 240.26 251.7 241.92 251.53C243.58 251.38 245.17 251.39 246.61 251.49C247.33 251.56 248.01 251.62 248.64 251.74C249.28 251.83 249.86 251.96 250.39 252.08C250.93 252.19 251.39 252.34 251.81 252.46C252.23 252.57 252.58 252.7 252.86 252.81C253.43 253.02 253.74 253.15 253.73 253.17C253.72 253.19 253.4 253.1 252.82 252.93C252.53 252.84 252.18 252.73 251.76 252.63C251.34 252.53 250.87 252.39 250.34 252.3C249.81 252.19 249.23 252.07 248.6 252C247.97 251.89 247.29 251.85 246.58 251.78C245.15 251.69 243.58 251.69 241.94 251.85C240.3 252.02 238.76 252.33 237.37 252.69C236.69 252.89 236.03 253.07 235.43 253.29C234.83 253.49 234.28 253.72 233.78 253.92C233.27 254.11 232.84 254.34 232.45 254.52C232.06 254.7 231.73 254.87 231.46 255.02C230.95 255.3 230.64 255.45 230.63 255.44Z" fill="#455A64"/>
<path d="M235.47 291.29C235.52 291.32 235.36 291.74 234.86 292.23C234.37 292.72 233.47 293.25 232.37 293.32C231.27 293.39 230.32 292.98 229.76 292.56C229.19 292.14 228.98 291.75 229.03 291.71C229.09 291.66 229.39 291.94 229.96 292.25C230.52 292.56 231.38 292.86 232.34 292.8C233.3 292.74 234.11 292.33 234.63 291.95C235.14 291.57 235.4 291.24 235.47 291.29Z" fill="#EB996E"/>
<path d="M258.46 290.59C258.51 290.62 258.37 290.99 257.95 291.44C257.53 291.89 256.79 292.41 255.85 292.61C254.9 292.81 254.02 292.65 253.45 292.41C252.87 292.17 252.6 291.9 252.63 291.84C252.69 291.7 254.03 292.47 255.74 292.1C257.44 291.74 258.35 290.48 258.46 290.59Z" fill="#EB996E"/>
<path d="M240.67 272.48C240.72 272.44 240.97 272.61 241.19 273.04C241.41 273.46 241.54 274.17 241.28 274.89C241.02 275.61 240.46 276.06 240.02 276.25C239.58 276.44 239.27 276.41 239.26 276.35C239.24 276.27 239.5 276.18 239.84 275.93C240.17 275.69 240.58 275.28 240.79 274.72C240.99 274.15 240.94 273.57 240.84 273.18C240.75 272.77 240.61 272.53 240.67 272.48Z" fill="#EB996E"/>
<path d="M244.05 276.63C244.01 276.68 243.74 276.55 243.45 276.16C243.16 275.78 242.93 275.12 242.97 274.39C243.02 273.66 243.34 273.03 243.67 272.69C244 272.34 244.29 272.25 244.32 272.3C244.41 272.41 243.55 273.13 243.49 274.42C243.38 275.7 244.15 276.53 244.05 276.63Z" fill="#EB996E"/>
<path d="M213.18 467.62C213.18 467.62 181.69 453.82 172.48 453.52C164.61 453.26 151.11 456.8 147.23 465.14C143.35 473.49 144.54 484.83 147.26 489.1C149.98 493.37 178.33 507 191.92 512.24C205.51 517.48 248.41 529.13 248.41 529.13L308.59 525.25C308.59 525.25 326.32 509.98 329.04 506.87C331.76 503.76 349.91 486.73 351.86 484.01C353.8 481.29 359.07 464.41 353.25 457.81C347.43 451.21 343.6 447.04 335.25 447.63C326.9 448.21 321.17 449.22 310.64 456.91C302.54 462.83 299.26 465.09 291.04 466.96C282.83 468.84 266.7 473.62 253.61 472.55C240.53 471.49 213.18 467.62 213.18 467.62Z" fill="#262E2F"/>
<path d="M183.64 465.8C183.64 465.79 183.74 465.83 183.91 465.91C184.11 466 184.36 466.12 184.68 466.27C185.38 466.61 186.36 467.09 187.61 467.7C190.18 468.98 193.83 470.81 198.33 473.06C202.85 475.34 208.22 478.07 214.15 481.18C220.07 484.32 226.56 487.76 233.39 491.38C242.97 496.47 251.91 501.22 259.41 505.2L259.6 505.3L259.51 505.49C255.96 512.59 253.01 518.5 250.93 522.67C249.9 524.71 249.09 526.32 248.52 527.46C248.25 527.99 248.04 528.4 247.88 528.72C247.73 529 247.66 529.15 247.65 529.15C247.64 529.15 247.69 528.99 247.82 528.7C247.97 528.38 248.16 527.95 248.41 527.41C248.96 526.26 249.74 524.63 250.72 522.57C252.76 518.38 255.66 512.44 259.14 505.3L259.23 505.59C251.71 501.62 242.76 496.89 233.17 491.83C226.35 488.21 219.83 484.79 213.96 481.6C208.05 478.47 202.69 475.71 198.19 473.39C193.72 471.08 190.09 469.21 187.54 467.89C186.31 467.25 185.34 466.74 184.65 466.38C184.34 466.21 184.1 466.08 183.9 465.98C183.72 465.86 183.63 465.81 183.64 465.8Z" fill="#455A64"/>
<path d="M301.19 468.73C301.19 468.74 301.12 468.79 300.98 468.89C300.81 469.01 300.59 469.15 300.32 469.33C299.74 469.72 298.88 470.27 297.76 470.96C295.51 472.33 292.24 474.3 288 476.39C283.78 478.48 278.57 480.7 272.52 482.27C269.49 483.05 266.26 483.65 262.87 483.98C259.48 484.29 255.95 484.34 252.35 484.14C245.14 483.7 238.38 482.3 232.38 480.61C226.37 478.92 221.1 476.96 216.71 475.23C212.33 473.5 208.82 471.99 206.4 470.94C205.22 470.42 204.29 470.01 203.62 469.72C203.33 469.58 203.09 469.48 202.9 469.39C202.74 469.31 202.66 469.27 202.66 469.26C202.66 469.25 202.75 469.28 202.92 469.34C203.11 469.41 203.36 469.51 203.66 469.62C204.34 469.89 205.28 470.27 206.47 470.76C208.91 471.75 212.43 473.21 216.83 474.9C221.23 476.58 226.5 478.5 232.49 480.17C238.48 481.83 245.21 483.21 252.37 483.65C255.95 483.85 259.45 483.81 262.81 483.5C266.17 483.18 269.38 482.6 272.39 481.84C278.41 480.3 283.6 478.14 287.83 476.09C292.07 474.05 295.37 472.13 297.64 470.81C298.75 470.15 299.62 469.64 300.25 469.26C300.53 469.1 300.75 468.97 300.93 468.86C301.1 468.76 301.18 468.72 301.19 468.73Z" fill="#455A64"/>
<path d="M258.429 500.56C258.399 500.56 258.319 500.22 258.209 499.58C258.099 498.95 257.989 498.02 257.909 496.88C257.729 494.59 257.749 491.41 257.969 487.91C258.199 484.42 258.509 481.27 258.679 478.99C258.869 476.71 258.949 475.3 259.029 475.3C259.069 475.3 259.089 475.66 259.089 476.3C259.099 476.94 259.079 477.87 259.039 479.02C258.949 481.31 258.699 484.47 258.469 487.95C258.239 491.43 258.169 494.58 258.259 496.86C258.349 499.14 258.509 500.54 258.429 500.56Z" fill="#455A64"/>
<path d="M288.06 469.63C288.08 469.71 286.84 470.08 284.88 470.79C282.91 471.49 280.24 472.56 277.39 473.99C274.55 475.42 272.09 476.94 270.36 478.1C268.62 479.26 267.58 480.03 267.53 479.97C267.51 479.94 267.74 479.72 268.19 479.34C268.63 478.96 269.3 478.43 270.15 477.81C271.84 476.57 274.29 474.99 277.16 473.54C280.03 472.1 282.76 471.07 284.76 470.45C285.76 470.14 286.58 469.91 287.16 469.79C287.73 469.65 288.05 469.59 288.06 469.63Z" fill="#455A64"/>
<path d="M324.01 453.82C324.02 453.84 323.77 454 323.29 454.3C322.77 454.62 322.07 455.05 321.18 455.6C320.25 456.14 319.14 456.85 317.87 457.69C316.58 458.51 315.13 459.46 313.55 460.56C310.36 462.7 306.66 465.41 302.57 468.43C298.5 471.48 294.07 474.89 289.42 478.48C284.78 482.08 280.33 485.48 276.26 488.53C272.16 491.55 268.45 494.25 265.24 496.38C263.65 497.47 262.19 498.41 260.89 499.23C259.6 500.06 258.48 500.75 257.55 501.28C256.65 501.8 255.93 502.21 255.4 502.52C254.91 502.8 254.64 502.94 254.63 502.92C254.62 502.9 254.87 502.74 255.34 502.43C255.86 502.1 256.56 501.66 257.44 501.11C258.36 500.55 259.46 499.84 260.73 498.99C262.01 498.16 263.46 497.2 265.03 496.09C268.21 493.92 271.89 491.2 275.97 488.16C280.03 485.09 284.46 481.68 289.1 478.08C293.74 474.49 298.19 471.09 302.28 468.05C306.39 465.05 310.11 462.37 313.34 460.26C314.93 459.18 316.41 458.25 317.71 457.45C319 456.63 320.13 455.95 321.07 455.43C321.98 454.92 322.7 454.51 323.23 454.21C323.73 453.94 324 453.81 324.01 453.82Z" fill="#455A64"/>
<path d="M349.01 475.42C349.02 475.42 349 475.5 348.96 475.64C348.9 475.81 348.84 476.02 348.76 476.28C348.57 476.84 348.31 477.67 347.86 478.7C347 480.77 345.53 483.71 343.13 486.95C341.93 488.57 340.51 490.26 338.82 491.93C337.14 493.6 335.24 495.28 333.08 496.84C328.79 500 323.52 502.7 317.7 504.67C311.89 506.67 306.2 508 301.06 509.3C295.92 510.59 291.27 511.7 287.34 512.52C283.41 513.34 280.21 513.89 277.99 514.21C276.88 514.37 276.02 514.48 275.43 514.54C275.16 514.57 274.94 514.59 274.76 514.61C274.61 514.62 274.53 514.62 274.53 514.62C274.53 514.61 274.6 514.59 274.75 514.56C274.93 514.53 275.15 514.49 275.41 514.44C276.03 514.33 276.88 514.19 277.96 514.01C280.17 513.63 283.36 513.03 287.27 512.17C291.18 511.31 295.82 510.16 300.96 508.85C306.09 507.52 311.77 506.18 317.55 504.19C323.33 502.23 328.55 499.57 332.82 496.46C334.97 494.93 336.86 493.27 338.54 491.63C340.22 489.99 341.65 488.33 342.86 486.74C345.28 483.56 346.79 480.67 347.7 478.63C348.18 477.62 348.47 476.8 348.69 476.25C348.79 476 348.87 475.8 348.94 475.63C348.97 475.49 349 475.42 349.01 475.42Z" fill="#455A64"/>
<path d="M351.86 475.13C351.92 475.15 351.78 475.91 351.36 477.09C350.94 478.27 350.21 479.85 349.15 481.44C348.08 483.03 346.89 484.3 345.95 485.13C345.01 485.96 344.36 486.37 344.32 486.33C344.21 486.21 346.64 484.29 348.73 481.16C350.84 478.05 351.7 475.08 351.86 475.13Z" fill="#455A64"/>
<path d="M244.75 527.48C244.72 527.47 244.76 527.11 244.87 526.45C244.98 525.79 245.17 524.85 245.44 523.68C245.97 521.36 246.86 518.17 248.12 514.76C249.39 511.34 250.8 508.36 251.91 506.25C252.47 505.2 252.94 504.35 253.28 503.78C253.62 503.21 253.83 502.9 253.86 502.92C253.93 502.96 253.25 504.27 252.23 506.41C251.2 508.55 249.85 511.54 248.59 514.94C247.33 518.33 246.4 521.48 245.78 523.77C245.17 526.06 244.82 527.5 244.75 527.48Z" fill="#455A64"/>
<path d="M169.64 462.96C169.62 462.91 170.32 462.57 171.55 462.29C172.77 462.01 174.53 461.85 176.44 462.1C178.35 462.36 180 462.99 181.1 463.59C182.21 464.19 182.8 464.7 182.76 464.75C182.69 464.9 180.1 463.09 176.37 462.61C172.64 462.08 169.67 463.13 169.64 462.96Z" fill="#455A64"/>
<path d="M194.29 512.71C191.92 512.7 188.96 514.54 187.45 516.36C185.94 518.18 185.01 520.41 184.12 522.6C183.42 524.32 182.74 526.26 183.43 527.98C184.08 529.61 185.84 530.57 187.58 530.8C189.32 531.03 191.07 530.67 192.8 530.38C210.86 527.34 229.53 531.78 247.64 529.05L194.29 512.71Z" fill="#FF7C53"/>
<path d="M194.17 530.08C194.14 530.05 194.43 529.74 194.81 529.08C195.19 528.43 195.65 527.4 195.7 526.06C195.76 524.74 195.31 523.1 194.14 521.78C193.56 521.13 192.81 520.55 191.93 520.25C191.06 519.94 190.02 519.97 189.24 520.55C188.45 521.09 188.09 522.14 188.61 522.88C188.83 523.25 189.2 523.53 189.59 523.63C189.98 523.74 190.38 523.63 190.7 523.39C191.35 522.89 191.52 522.02 191.44 521.26C191.36 520.49 191.14 519.77 190.91 519.14C189.93 516.6 188.55 515.45 188.65 515.39C188.67 515.37 189.01 515.63 189.53 516.21C190.04 516.79 190.71 517.71 191.25 519.01C191.51 519.66 191.76 520.38 191.87 521.22C191.98 522.03 191.83 523.1 191 523.76C190.61 524.08 190.02 524.25 189.48 524.1C188.95 523.96 188.49 523.61 188.2 523.14C187.9 522.68 187.78 522.04 187.96 521.49C188.12 520.93 188.5 520.46 188.96 520.13C189.89 519.43 191.15 519.41 192.11 519.77C193.1 520.12 193.9 520.76 194.51 521.47C195.75 522.91 196.19 524.67 196.08 526.07C195.98 527.49 195.44 528.54 195 529.18C194.54 529.83 194.19 530.1 194.17 530.08Z" fill="white"/>
<path d="M206.54 516.25C206.58 516.22 207.14 516.92 207.58 518.28C208.03 519.62 208.28 521.67 207.68 523.79C207.08 525.91 205.78 527.52 204.7 528.42C203.61 529.34 202.76 529.65 202.74 529.6C202.7 529.52 203.46 529.11 204.45 528.15C205.44 527.21 206.61 525.65 207.19 523.64C207.76 521.63 207.58 519.69 207.24 518.37C206.9 517.05 206.47 516.29 206.54 516.25Z" fill="white"/>
<path d="M216.6 519.38C216.63 519.42 216.34 519.6 215.95 520.04C215.57 520.48 215.09 521.22 214.92 522.25C214.75 523.24 214.9 524.62 215.89 525.53C216.36 525.98 217.07 526.23 217.68 525.94C218.28 525.67 218.7 524.92 218.6 524.23C218.5 523.52 217.9 522.95 217.25 522.73C216.59 522.5 215.87 522.65 215.31 522.99C214.15 523.69 213.79 525.03 213.83 526.04C213.87 527.08 214.22 527.89 214.47 528.42C214.73 528.96 214.91 529.24 214.88 529.26C214.86 529.28 214.62 529.03 214.3 528.51C213.99 527.99 213.56 527.18 213.47 526.05C213.43 525.49 213.49 524.86 213.73 524.24C213.96 523.61 214.42 523 215.07 522.59C215.71 522.18 216.58 521.97 217.41 522.25C218.21 522.51 218.96 523.2 219.1 524.15C219.23 525.09 218.7 526.01 217.89 526.39C217.04 526.78 216.11 526.39 215.58 525.87C214.44 524.77 214.35 523.24 214.57 522.18C214.81 521.08 215.37 520.32 215.81 519.9C216.26 519.49 216.59 519.36 216.6 519.38Z" fill="white"/>
<path d="M226.92 530.08C226.87 530.02 227.21 529.74 227.64 529.21C228.07 528.69 228.57 527.87 228.76 526.88C228.95 525.88 228.77 524.95 228.54 524.31C228.32 523.67 228.08 523.3 228.15 523.26C228.2 523.22 228.54 523.52 228.87 524.17C229.2 524.81 229.47 525.85 229.26 526.97C229.05 528.09 228.43 528.96 227.91 529.45C227.37 529.96 226.95 530.13 226.92 530.08Z" fill="white"/>
<path d="M326.41 516.04C323.55 512.11 318.03 511.29 313.18 511.55C309.35 511.76 305.54 512.43 301.87 513.55C299.95 514.14 297.96 514.85 295.98 514.49C294.25 514.17 292.78 513.06 291.09 512.57C288.02 511.68 284.81 512.93 281.66 513.48C273.61 514.87 265.58 511.54 258.1 508.28L249.17 525.64C257.72 529.43 265.29 531.14 274.28 533.33C282.25 535.27 290.59 534.6 298.8 534.89C303.49 535.06 308.2 535.54 312.86 534.97C317.52 534.4 322.23 532.63 325.27 529.05C328.31 525.47 329.17 519.84 326.41 516.04Z" fill="#FF7C53"/>
<path d="M258.99 529.25C258.97 529.26 258.92 529.16 258.82 528.96C258.72 528.76 258.61 528.46 258.47 528.06C258.22 527.27 257.96 526.06 258.04 524.55C258.12 523.05 258.54 521.24 259.62 519.55C260.16 518.71 260.89 517.87 261.92 517.37C262.93 516.9 264.26 516.75 265.33 517.52C265.8 517.93 266.18 518.53 266.04 519.25C265.96 519.6 265.68 519.88 265.37 520.01C265.06 520.14 264.74 520.14 264.45 520.11C263.33 519.95 262.34 519.46 261.55 518.82C259.96 517.52 259.27 515.62 259.36 514.1C259.43 512.56 260.02 511.42 260.53 510.76C260.78 510.42 261.02 510.19 261.18 510.05C261.35 509.91 261.44 509.84 261.46 509.86C261.49 509.9 261.14 510.19 260.69 510.88C260.25 511.55 259.74 512.67 259.72 514.11C259.68 515.54 260.35 517.27 261.84 518.46C262.57 519.04 263.5 519.49 264.49 519.62C264.97 519.69 265.45 519.53 265.54 519.14C265.64 518.75 265.37 518.23 265 517.93C264.2 517.34 263.01 517.41 262.13 517.84C261.22 518.27 260.54 519.03 260.01 519.82C258.96 521.42 258.51 523.15 258.39 524.59C258.19 527.51 259.11 529.23 258.99 529.25Z" fill="white"/>
<path d="M273.07 532.13C273.07 532.09 273.39 532.09 273.93 531.94C274.47 531.8 275.22 531.47 275.94 530.79C276.66 530.12 277.28 529.07 277.48 527.78C277.69 526.5 277.49 525.02 276.91 523.62C276.33 522.21 275.48 521.01 274.65 519.96C273.82 518.92 272.96 518.01 272.54 517.02C272.1 516.04 272.14 515.12 272.34 514.57C272.54 514 272.82 513.8 272.83 513.81C272.87 513.84 272.65 514.08 272.53 514.62C272.4 515.15 272.42 515.99 272.86 516.86C273.29 517.75 274.14 518.61 275.01 519.66C275.87 520.71 276.76 521.94 277.37 523.42C277.98 524.89 278.18 526.47 277.93 527.85C277.7 529.24 276.98 530.37 276.17 531.05C275.37 531.74 274.53 532.05 273.96 532.13C273.39 532.23 273.07 532.16 273.07 532.13Z" fill="white"/>
<path d="M296.33 514.51C296.35 514.5 296.41 514.65 296.5 514.92C296.59 515.2 296.72 515.61 296.84 516.15C297.08 517.23 297.32 518.84 297.17 520.83C297.09 521.82 296.93 522.92 296.51 524.03C296.1 525.13 295.35 526.29 294.16 526.99C292.98 527.67 291.47 527.94 290.02 527.53C289.3 527.33 288.61 526.97 288.05 526.41C287.49 525.86 287.11 525.04 287.21 524.19C287.26 523.35 287.93 522.55 288.75 522.38C289.55 522.17 290.41 522.42 291 522.91C292.2 523.91 292.59 525.46 292.5 526.8C292.26 529.56 290.4 531.53 288.71 532.52C286.98 533.55 285.39 533.93 284.32 534.2C283.78 534.33 283.36 534.41 283.07 534.45C282.78 534.5 282.63 534.51 282.63 534.5C282.62 534.46 283.21 534.32 284.27 534.01C285.31 533.69 286.87 533.25 288.52 532.22C289.33 531.69 290.17 531.02 290.81 530.09C291.46 529.17 291.96 528.03 292.04 526.78C292.12 525.56 291.72 524.15 290.7 523.32C290.2 522.91 289.52 522.73 288.89 522.89C288.25 523.03 287.79 523.59 287.73 524.26C287.65 524.93 287.95 525.59 288.43 526.07C288.91 526.55 289.53 526.89 290.18 527.07C291.48 527.45 292.87 527.21 293.95 526.6C295.03 525.98 295.74 524.94 296.14 523.9C296.56 522.85 296.73 521.78 296.83 520.82C297.03 518.88 296.85 517.28 296.67 516.21C296.47 515.1 296.29 514.52 296.33 514.51Z" fill="white"/>
<path d="M304.63 534.58C304.62 534.59 304.49 534.5 304.26 534.3C304.03 534.1 303.72 533.79 303.35 533.36C302.63 532.48 301.71 531.04 301.26 529.02C300.8 527.02 300.96 524.4 302.3 521.99C302.96 520.79 303.88 519.66 305.06 518.74C306.23 517.85 307.68 517.04 309.36 517.12C311.02 517.17 312.57 518.66 312.36 520.34C312.25 521.17 311.62 521.83 310.92 522.11C310.22 522.4 309.44 522.43 308.74 522.22C307.31 521.75 306.58 520.36 306.42 519.16C306.26 517.92 306.54 516.75 307.07 515.84C308.17 514.04 309.71 513.2 310.68 512.66C311.18 512.4 311.59 512.22 311.86 512.1C312.14 511.99 312.29 511.94 312.29 511.95C312.31 511.99 311.74 512.26 310.77 512.83C309.83 513.41 308.37 514.29 307.37 516.01C306.9 516.86 306.66 517.96 306.83 519.09C306.99 520.19 307.68 521.39 308.87 521.77C309.45 521.95 310.13 521.91 310.72 521.66C311.31 521.42 311.78 520.9 311.86 520.26C312.03 518.96 310.74 517.64 309.32 517.62C307.86 517.54 306.47 518.27 305.36 519.12C304.24 519.99 303.34 521.06 302.7 522.2C301.4 524.49 301.21 526.99 301.6 528.93C301.99 530.89 302.84 532.32 303.49 533.22C304.19 534.14 304.66 534.55 304.63 534.58Z" fill="white"/>
<path d="M320.87 512.68C320.9 512.67 321.09 512.97 321.37 513.56C321.65 514.15 321.99 515.03 322.29 516.15C322.89 518.39 323.16 521.72 322.15 525.17C321.14 528.62 319.11 531.28 317.4 532.84C316.54 533.63 315.78 534.19 315.23 534.53C314.68 534.87 314.35 535.03 314.34 535C314.29 534.92 315.54 534.2 317.15 532.58C318.76 530.99 320.68 528.37 321.66 525.03C322.64 521.69 322.44 518.45 321.94 516.24C321.44 514 320.78 512.72 320.87 512.68Z" fill="white"/>
<path d="M214.9 294.33C214.9 294.33 217.48 291.64 217.69 290.45C218.44 286.33 219.72 284.25 221.8 282.99C221.8 282.99 224.53 287.62 224.81 295.51C225.01 301.14 225.11 305.4 225.11 305.4C225.11 305.4 227.94 312.1 226.6 315.53C225.26 318.96 223.44 317.76 220.92 316.72C218.4 315.68 217.51 311.66 217.51 311.66L214.88 311.43V294.33H214.9Z" fill="#FFBE9D"/>
<path d="M221.8 282.99C221.82 282.98 221.89 283.08 222.02 283.29C222.15 283.49 222.34 283.8 222.54 284.22C222.95 285.04 223.45 286.29 223.86 287.89C224.28 289.49 224.61 291.43 224.85 293.58C224.96 294.66 225.08 295.79 225.2 296.97C225.33 298.14 225.37 299.39 225.36 300.64C225.36 301.89 225.36 303.1 225.5 304.25C225.63 305.4 225.96 306.47 226.3 307.5C226.64 308.52 226.98 309.5 227.21 310.46C227.46 311.4 227.51 312.36 227.39 313.19C227.16 314.85 226.6 316.11 226.04 316.86C225.47 317.63 224.87 317.73 224.88 317.7C224.86 317.66 225.38 317.51 225.87 316.74C226.35 315.99 226.85 314.74 227.02 313.14C227.27 311.53 226.55 309.69 225.85 307.65C225.5 306.62 225.14 305.51 225 304.31C224.84 303.12 224.84 301.88 224.84 300.63C224.85 299.38 224.82 298.18 224.69 297.01C224.58 295.84 224.48 294.71 224.37 293.63C224.15 291.48 223.86 289.56 223.5 287.97C223.14 286.38 222.7 285.14 222.35 284.3C222.01 283.46 221.76 283.02 221.8 282.99Z" fill="#EB996E"/>
<path d="M219.93 295.18C219.9 295.32 218.55 295.19 216.91 294.89C215.27 294.59 213.95 294.23 213.98 294.09C214.01 293.95 215.36 294.08 217 294.38C218.64 294.68 219.96 295.04 219.93 295.18Z" fill="#EB996E"/>
<path d="M254.52 473.46C254.52 473.48 254.34 473.47 254.02 473.44C253.63 473.4 253.16 473.34 252.59 473.28C251.35 473.13 249.55 472.89 247.34 472.57C242.91 471.94 236.8 470.99 230.07 469.84C223.34 468.68 217.26 467.53 212.88 466.65C210.69 466.21 208.91 465.84 207.69 465.56C207.13 465.43 206.67 465.32 206.29 465.23C205.97 465.15 205.8 465.1 205.81 465.08C205.81 465.06 205.99 465.08 206.31 465.13C206.69 465.19 207.16 465.27 207.73 465.36C209.04 465.59 210.8 465.9 212.95 466.28C217.43 467.07 223.48 468.14 230.16 469.32C236.86 470.44 242.91 471.45 247.4 472.2C249.55 472.56 251.31 472.85 252.63 473.07C253.2 473.17 253.66 473.26 254.05 473.33C254.35 473.4 254.52 473.44 254.52 473.46Z" fill="#455A64"/>
<path d="M281.87 281.25C281.87 281.25 284.67 288.24 284.65 290.99C284.63 293.74 282.77 300.7 282.77 300.7L281.87 281.25Z" fill="#FFBE9D"/>
<path d="M287.14 302.29L283.24 301.73C283.24 301.73 282.21 291.43 282.31 289.82C282.52 286.58 281.79 277.17 280.53 275.94C277.88 273.36 278.47 289.82 278.47 289.82C278.47 285.5 278.22 280.02 277.6 278.89C276.53 276.96 275.3 279.1 275.3 279.1C275.3 279.1 273.12 295.87 272.97 299.48C272.81 303.09 272.53 313.08 273.23 315.06C273.97 317.16 273.12 317.83 275.47 317.67C277.82 317.51 290.82 315.93 290.82 315.93L287.94 302.1" fill="#FFBE9D"/>
<path d="M275.29 279.1C275.33 279.1 275.3 279.69 275.22 280.76C275.14 281.83 274.99 283.37 274.78 285.27C274.37 289.07 273.64 294.3 272.92 300.08C272.57 302.97 272.27 305.73 272.07 308.24C271.91 310.75 271.6 313.05 272.11 314.85C272.3 315.79 272.9 316.36 273.56 316.73C274.2 317.09 274.82 317.29 275.33 317.4C276.36 317.63 276.96 317.53 276.96 317.58C276.96 317.59 276.82 317.64 276.53 317.66C276.25 317.69 275.82 317.68 275.29 317.6C274.76 317.51 274.11 317.34 273.41 316.98C273.06 316.8 272.71 316.56 272.4 316.22C272.08 315.88 271.89 315.41 271.75 314.95C271.17 313.04 271.46 310.71 271.59 308.2C271.76 305.67 272.05 302.91 272.4 300.01C273.12 294.22 273.91 289 274.41 285.22C274.65 283.4 274.86 281.88 275.01 280.74C275.16 279.68 275.26 279.09 275.29 279.1Z" fill="#EB996E"/>
<path d="M277.98 294.57C277.87 294.47 278.29 293.83 278.41 292.93C278.55 292.04 278.33 291.3 278.46 291.24C278.58 291.16 279.08 291.94 278.92 293.01C278.77 294.08 278.07 294.68 277.98 294.57Z" fill="#EB996E"/>
<path d="M278.29 281.98C278.43 281.96 278.79 283.65 278.82 285.77C278.86 287.89 278.54 289.59 278.4 289.58C278.25 289.56 278.33 287.87 278.29 285.78C278.28 283.69 278.15 282 278.29 281.98Z" fill="#EB996E"/>
<path d="M282.37 292.03C282.24 292.03 282.09 289.68 281.92 286.77C281.76 283.86 281.84 281.48 281.99 281.49C282.12 281.49 282.27 283.84 282.44 286.75C282.6 289.66 282.52 292.03 282.37 292.03Z" fill="#EB996E"/>
<path d="M288.32 302.46C288.32 302.6 286.35 302.67 283.92 302.61C281.49 302.55 279.53 302.38 279.53 302.24C279.53 302.1 281.5 302.03 283.93 302.09C286.36 302.16 288.32 302.32 288.32 302.46Z" fill="#EB996E"/>
<path d="M149 242.563L152.67 241.973L162.5 251.853L163.69 259.183C163.69 259.183 169.43 258.613 167.2 249.113C164.98 239.613 166.1 241.943 166.1 241.943C166.1 241.943 178.15 239.943 178.98 238.733C179.59 237.853 177.98 225.823 177.05 219.303C176.58 216.023 174.09 213.303 170.92 213.023C170.47 212.983 170.02 212.993 169.59 213.063C166.58 213.553 151.61 218.483 151.61 218.483L145.26 219.513L149 242.563Z" fill="#EBEBEB"/>
<path d="M138.8 246.273L137 220.783L143.29 219.763L147.28 244.383L138.8 246.273Z" fill="#EBEBEB"/>
<path d="M414.115 384.563L410.445 383.973L400.615 393.853L399.424 401.183C399.424 401.183 393.685 400.613 395.915 391.113C398.135 381.613 397.014 383.943 397.014 383.943C397.014 383.943 384.965 381.943 384.135 380.733C383.525 379.853 385.134 367.823 386.064 361.303C386.534 358.023 389.025 355.303 392.195 355.023C392.645 354.983 393.094 354.993 393.524 355.063C396.534 355.553 411.505 360.483 411.505 360.483L417.854 361.513L414.115 384.563Z" fill="#EBEBEB"/>
<path d="M424.314 388.273L426.114 362.783L419.824 361.763L415.834 386.383L424.314 388.273Z" fill="#EBEBEB"/>
<path d="M147.576 393.374L142.972 389L123.362 409.641L127.966 414.015L147.576 393.374Z" fill="#EBEBEB"/>
<path d="M127.374 389.408L123 394.012L143.641 413.622L148.015 409.018L127.374 389.408Z" fill="#EBEBEB"/>
<path d="M417.576 157.374L412.972 153L393.362 173.641L397.966 178.015L417.576 157.374Z" fill="#EBEBEB"/>
<path d="M397.374 153.408L393 158.012L413.641 177.622L418.015 173.018L397.374 153.408Z" fill="#EBEBEB"/>
<path d="M341.18 239.36C352.325 239.36 361.36 230.325 361.36 219.18C361.36 208.035 352.325 199 341.18 199C330.035 199 321 208.035 321 219.18C321 230.325 330.035 239.36 341.18 239.36Z" fill="#F5F5F5"/>
<path d="M330.05 215.59C332.17 216.98 334.12 218.61 335.88 220.45C336.44 221.03 337.32 220.15 336.76 219.57C334.93 217.66 332.89 215.97 330.68 214.52C330.01 214.07 329.38 215.15 330.05 215.59Z" fill="#9D9FA1"/>
<path d="M333.27 218.06C333.07 219.3 332.87 220.54 332.67 221.78C332.62 222.1 332.75 222.47 333.11 222.55C333.41 222.62 333.82 222.46 333.88 222.11C334.08 220.87 334.28 219.63 334.48 218.39C334.53 218.07 334.4 217.7 334.04 217.62C333.74 217.55 333.33 217.71 333.27 218.06Z" fill="#9D9FA1"/>
<path d="M350.14 216.88C347.78 218.06 345.56 219.52 343.53 221.21C343.27 221.43 343.31 221.87 343.53 222.09C343.79 222.35 344.15 222.31 344.41 222.09C346.36 220.47 348.5 219.09 350.77 217.95C351.49 217.6 350.86 216.52 350.14 216.88Z" fill="#9D9FA1"/>
<path d="M346.39 220.17C346.59 221.41 346.79 222.65 346.99 223.89C347.04 224.21 347.46 224.42 347.76 224.33C348.11 224.22 348.25 223.91 348.2 223.56C348 222.32 347.8 221.08 347.6 219.84C347.55 219.52 347.13 219.31 346.83 219.4C346.47 219.51 346.33 219.82 346.39 220.17Z" fill="#9D9FA1"/>
<path d="M334.41 228.98C335.57 227.39 337.57 226.48 339.53 226.66C341.45 226.83 343.16 228.08 344.04 229.77C344.41 230.48 345.49 229.85 345.12 229.14C344.03 227.04 341.88 225.61 339.53 225.41C337.11 225.2 334.74 226.41 333.33 228.35C332.86 229 333.94 229.62 334.41 228.98Z" fill="#9D9FA1"/>
<path d="M92.5478 184.291L96.8078 181.091C97.1278 180.851 97.2678 180.451 97.1778 180.061L96.0378 175.441C95.9778 175.511 95.9178 175.581 95.8578 175.651C95.4678 174.651 94.8678 173.741 94.0978 173.001C92.6678 171.641 90.6578 170.901 88.6878 171.011C85.6078 171.181 82.7578 173.341 81.2478 175.781C81.0378 176.121 80.8678 176.481 80.7278 176.851C79.7978 179.331 79.7178 182.371 80.7278 184.861C81.6678 187.191 83.4578 189.241 85.3778 190.861C87.6278 192.761 90.3678 195.001 91.8278 196.191C92.3378 196.611 93.1078 196.411 93.3578 195.801L95.5178 190.681C95.6578 190.351 95.6078 189.981 95.3978 189.701L92.3578 185.681C92.0278 185.241 92.1078 184.621 92.5478 184.291Z" fill="#EBEBEB"/>
<path d="M111.418 180.171C110.768 177.351 108.728 174.371 105.828 173.241C103.988 172.521 101.848 172.591 100.058 173.441C99.0779 173.901 98.2178 174.601 97.5378 175.451L98.9879 180.391C99.0879 180.731 98.9679 181.101 98.6779 181.301L94.0279 184.701C93.7679 184.921 93.7179 185.301 93.9179 185.581L97.1878 189.851C97.3578 190.081 97.3979 190.381 97.2779 190.641L94.3478 197.031C94.3578 197.041 94.3778 197.051 94.3778 197.051C94.3778 197.051 98.8378 194.711 102.758 193.131C105.088 192.191 107.428 190.801 109.048 188.881C110.798 186.801 111.678 183.861 111.548 181.191C111.548 180.851 111.498 180.511 111.418 180.171Z" fill="#EBEBEB"/>
<path d="M423.07 283.263L419.658 273.705C414.33 271.326 409.577 267.502 406.044 262.331C395.892 247.466 399.72 227.181 414.585 217.03C429.45 206.878 449.735 210.705 459.886 225.57C470.038 240.436 466.211 260.72 451.345 270.872C445.142 275.108 437.988 276.904 431.025 276.481L431.043 276.49L423.07 283.263Z" fill="white"/>
<path d="M423.07 283.263C423.07 283.263 423.24 283.124 423.58 282.847C423.928 282.551 424.442 282.126 425.108 281.575C426.471 280.434 428.487 278.746 431.096 276.561L431.212 276.463L431.069 276.414L431.051 276.405L431.016 276.566C435.188 276.826 440.836 276.369 446.777 273.622C448.257 272.941 449.741 272.117 451.203 271.136C452.606 270.093 454.116 269.058 455.439 267.729C458.169 265.168 460.635 261.973 462.452 258.197C464.273 254.434 465.45 250.126 465.678 245.569C465.915 241.016 465.187 236.227 463.371 231.69C461.583 227.143 458.596 222.915 454.756 219.48C450.911 216.053 446.168 213.419 440.935 212.171C440.273 212.02 439.62 211.85 438.962 211.712C438.296 211.615 437.634 211.53 436.967 211.432L435.974 211.295L434.981 211.246C434.315 211.216 433.658 211.19 432.991 211.159C432.334 211.155 431.667 211.214 431.015 211.246C430.353 211.295 429.7 211.283 429.056 211.408C427.768 211.615 426.462 211.746 425.215 212.118C420.176 213.348 415.581 215.75 411.814 218.91C408.069 222.093 405.179 226.027 403.273 230.183C401.354 234.344 400.392 238.737 400.271 242.923C400.145 247.118 400.833 251.115 402.07 254.661C402.649 256.458 403.482 258.08 404.266 259.645C405.198 261.138 406.022 262.622 407.051 263.895C411.059 269.079 415.833 272.098 419.645 273.776L419.6 273.732C420.735 276.834 421.6 279.222 422.196 280.849C422.483 281.64 422.707 282.244 422.86 282.655C422.99 283.066 423.07 283.263 423.07 283.263C423.07 283.263 423.003 283.04 422.855 282.619C422.712 282.19 422.492 281.578 422.223 280.773C421.658 279.15 420.824 276.767 419.739 273.678L419.721 273.647L419.685 273.629C415.905 271.933 411.179 268.905 407.23 263.739C406.218 262.474 405.403 260.995 404.485 259.52C403.71 257.959 402.894 256.346 402.329 254.566C401.119 251.057 400.435 247.095 400.575 242.94C400.71 238.795 401.667 234.456 403.564 230.34C405.461 226.224 408.32 222.353 412.024 219.205C415.747 216.089 420.293 213.719 425.278 212.507C426.512 212.14 427.795 212.009 429.07 211.806C429.705 211.676 430.367 211.693 431.015 211.648C431.663 211.625 432.321 211.562 432.969 211.561C433.627 211.588 434.28 211.623 434.937 211.649L435.921 211.693L436.9 211.835C437.558 211.928 438.206 212.017 438.864 212.111C439.513 212.244 440.157 212.409 440.805 212.565C445.972 213.79 450.661 216.398 454.461 219.779C458.256 223.17 461.216 227.34 462.987 231.833C464.784 236.317 465.508 241.048 465.284 245.552C465.069 250.06 463.911 254.332 462.121 258.054C460.326 261.785 457.892 264.963 455.202 267.51C453.893 268.835 452.409 269.86 451.019 270.899C449.575 271.866 448.109 272.7 446.643 273.376C440.765 276.132 435.161 276.611 431.002 276.391L430.394 276.356L430.967 276.552L430.984 276.561L430.957 276.414C428.392 278.621 426.426 280.322 425.081 281.472C424.415 282.046 423.915 282.489 423.562 282.793C423.249 283.106 423.07 283.263 423.07 283.263Z" fill="#263238"/>
<path d="M429.757 245.262L435.833 243.163C436.289 243.011 436.597 242.595 436.633 242.121L437.03 236.396C436.932 236.459 436.838 236.512 436.74 236.575C436.667 235.287 436.317 234.017 435.694 232.891C434.547 230.799 432.525 229.209 430.221 228.607C426.62 227.671 422.556 229.097 419.929 231.34C419.562 231.649 419.231 231.998 418.932 232.374C416.958 234.876 415.749 238.329 415.975 241.571C416.188 244.594 417.493 247.603 419.091 250.177C420.968 253.181 423.292 256.766 424.533 258.67C424.972 259.335 425.915 259.393 426.438 258.793L430.803 253.718C431.075 253.395 431.164 252.948 431.03 252.546L429.016 246.792C428.797 246.157 429.127 245.473 429.757 245.262Z" fill="#FF7C53"/>
<path d="M452.934 247.481C453.226 244.006 451.984 239.844 449.079 237.467C447.226 235.962 444.752 235.253 442.391 235.573C441.099 235.744 439.852 236.228 438.757 236.944L438.597 243.156C438.584 243.586 438.311 243.953 437.905 244.096L431.315 246.285C430.935 246.441 430.738 246.857 430.864 247.255L433.038 253.358C433.155 253.684 433.079 254.038 432.851 254.293L427.137 260.55C427.142 260.563 427.164 260.586 427.164 260.586C427.164 260.586 433.138 259.543 438.222 259.185C441.245 258.972 444.438 258.24 447.008 256.628C449.788 254.886 451.869 251.834 452.712 248.734C452.819 248.318 452.894 247.897 452.934 247.481Z" fill="#FF7C53"/>
<path d="M231.209 193.374L225.039 185.814C219.439 185.374 213.899 183.434 209.029 179.884C195.029 169.674 191.959 150.054 202.169 136.054C212.379 122.054 231.999 118.984 245.999 129.194C259.999 139.404 263.069 159.024 252.859 173.024C248.599 178.864 242.689 182.804 236.239 184.664H236.259L231.209 193.374Z" fill="white"/>
<path d="M231.209 193.374C231.209 193.374 231.319 193.194 231.539 192.834C231.759 192.454 232.089 191.904 232.509 191.184C233.379 189.704 234.659 187.534 236.319 184.704L236.389 184.584H236.249H236.229L236.249 184.744C240.119 183.634 245.089 181.404 249.589 176.994C250.709 175.904 251.789 174.674 252.799 173.314C253.739 171.914 254.769 170.494 255.539 168.854C257.189 165.654 258.389 161.954 258.829 157.954C259.269 153.954 258.939 149.664 257.679 145.464C256.419 141.264 254.219 137.154 251.109 133.624C248.019 130.074 243.949 127.204 239.359 125.334C234.769 123.474 229.619 122.614 224.469 123.164C223.819 123.234 223.179 123.294 222.539 123.384C221.909 123.514 221.269 123.644 220.639 123.774L219.699 123.964L218.779 124.244C218.169 124.434 217.559 124.624 216.949 124.804C216.349 125.014 215.769 125.284 215.179 125.524C214.599 125.784 213.999 125.984 213.449 126.304C212.339 126.914 211.209 127.444 210.199 128.184C206.029 130.924 202.629 134.584 200.239 138.664C197.869 142.764 196.519 147.254 196.129 151.644C195.729 156.034 196.279 160.324 197.519 164.164C198.749 168.014 200.679 171.414 202.939 174.224C204.039 175.664 205.319 176.864 206.539 178.044C207.859 179.094 209.089 180.174 210.429 180.994C215.729 184.404 221.039 185.604 225.029 185.894L224.969 185.864C226.999 188.314 228.559 190.194 229.619 191.484C230.139 192.104 230.529 192.584 230.809 192.914C231.079 193.224 231.209 193.374 231.209 193.374C231.209 193.374 231.069 193.194 230.809 192.864C230.539 192.524 230.149 192.034 229.639 191.394C228.599 190.104 227.079 188.214 225.099 185.754L225.079 185.724H225.049C221.079 185.404 215.809 184.184 210.569 180.774C209.249 179.954 208.029 178.874 206.719 177.834C205.519 176.664 204.249 175.474 203.169 174.044C200.939 171.254 199.049 167.884 197.829 164.064C196.609 160.254 196.079 156.014 196.479 151.674C196.869 147.334 198.209 142.894 200.559 138.844C202.929 134.814 206.289 131.204 210.409 128.494C211.409 127.764 212.529 127.234 213.629 126.634C214.169 126.314 214.759 126.114 215.339 125.864C215.919 125.634 216.489 125.364 217.089 125.154C217.689 124.964 218.299 124.784 218.899 124.594L219.809 124.314L220.739 124.124C221.359 123.994 221.989 123.864 222.609 123.734C223.239 123.654 223.879 123.594 224.519 123.524C229.599 122.974 234.699 123.824 239.229 125.664C243.759 127.514 247.789 130.344 250.849 133.844C253.929 137.334 256.109 141.394 257.359 145.544C258.619 149.704 258.949 153.944 258.519 157.904C258.099 161.864 256.919 165.534 255.299 168.714C254.539 170.334 253.519 171.744 252.599 173.144C251.609 174.494 250.539 175.714 249.439 176.804C244.999 181.194 240.069 183.444 236.229 184.574L235.669 184.744L236.259 184.734H236.279L236.209 184.614C234.599 187.444 233.359 189.614 232.519 191.094C232.099 191.834 231.789 192.394 231.569 192.774C231.319 193.174 231.209 193.374 231.209 193.374Z" fill="#263238"/>
<path d="M239.824 146.704L235.394 142.496L216.521 162.361L220.951 166.569L239.824 146.704Z" fill="#FF7C53"/>
<path d="M220.379 142.864L216.17 147.293L236.035 166.167L240.244 161.737L220.379 142.864Z" fill="#FF7C53"/>
<path d="M315.697 136.566L339.178 117.85L354.792 122.125L340.455 132.344L359.972 137.687L317.72 161.741L333.75 141.509L315.697 136.566Z" fill="#FF7C53"/>
<path d="M111.661 334.051L99.7406 318.148L89.0267 318.283L96.5064 327.219L83.114 327.388L106.168 349.84L99.2734 334.207L111.661 334.051Z" fill="#FF7C53"/>
<path d="M173.661 111.051L161.741 95.1478L151.027 95.2829L158.506 104.219L145.114 104.388L168.168 126.84L161.273 111.207L173.661 111.051Z" fill="#FF7C53"/>
<path d="M522.022 86.8547L524.5 77.8786L526.978 86.8547C527.672 89.366 529.634 91.3281 532.145 92.0215L541.121 94.5L532.145 96.9785C529.634 97.6719 527.672 99.634 526.978 102.145L524.5 111.121L522.022 102.145C521.328 99.634 519.366 97.6719 516.855 96.9785L507.879 94.5L516.855 92.0215C519.366 91.3281 521.328 89.366 522.022 86.8547Z" fill="#212529" stroke="white"/>
<path d="M550.682 56.5155L555 40.8786L559.318 56.5155C560.011 59.0268 561.973 60.9889 564.484 61.6823L580.121 66L564.484 70.3177C561.973 71.0111 560.011 72.9732 559.318 75.4845L555 91.1214L550.682 75.4845C549.989 72.9732 548.027 71.0111 545.516 70.3177L529.879 66L545.516 61.6823C548.027 60.9889 549.989 59.0268 550.682 56.5155Z" fill="#212529" stroke="white"/>
<path d="M46.6686 455.165L43 441.879L39.3314 455.165C38.638 457.676 36.6759 459.638 34.1646 460.331L20.8786 464L34.1646 467.669C36.6759 468.362 38.638 470.324 39.3314 472.835L43 486.121L46.6686 472.835C47.362 470.324 49.3241 468.362 51.8354 467.669L65.1214 464L51.8354 460.331C49.3241 459.638 47.362 457.676 46.6686 455.165Z" fill="#212529" stroke="white"/>
<path d="M402.708 108.531L400.092 107.34L390.741 112.694L388.354 117.915C388.354 117.915 384.191 116.316 387.798 109.689C391.398 103.061 390.086 104.569 390.086 104.569C390.086 104.569 381.511 100.612 381.14 99.5397C380.866 98.7588 384.528 90.1195 386.556 85.449C387.578 83.0998 389.991 81.5816 392.412 82.0217C392.755 82.084 393.089 82.1835 393.395 82.3237C395.539 83.3051 405.69 90.0447 405.69 90.0447L410.214 92.1123L402.708 108.531Z" fill="#EBEBEB" fill-opacity="0.2"/>
<path d="M409.553 113.385L416.112 94.7497L411.631 92.7018L403.618 110.24L409.553 113.385Z" fill="#EBEBEB" fill-opacity="0.2"/>
<path d="M287.515 96.9799C297.898 92.929 303.031 81.2282 298.98 70.8453C294.929 60.4624 283.229 55.3293 272.846 59.3801C262.463 63.431 257.33 75.1318 261.381 85.5147C265.431 95.8976 277.132 101.031 287.515 96.9799Z" fill="#F5F5F5"/>
<path d="M268.507 78.8809C270.987 79.4053 273.396 80.215 275.705 81.2895C276.437 81.6263 276.937 80.4866 276.205 80.1498C273.805 79.0356 271.291 78.2026 268.705 77.6551C267.917 77.4794 267.723 78.7145 268.507 78.8809Z" fill="#9D9FA2"/>
<path d="M272.404 80.0116C272.669 81.2395 272.933 82.4674 273.197 83.6952C273.267 84.0115 273.523 84.309 273.887 84.2527C274.192 84.2089 274.516 83.9108 274.445 83.5629C274.18 82.335 273.916 81.1071 273.652 79.8792C273.582 79.563 273.326 79.2655 272.962 79.3218C272.657 79.3656 272.333 79.6637 272.404 80.0116Z" fill="#9D9FA2"/>
<path d="M287.692 72.7806C285.922 74.7377 284.385 76.9047 283.108 79.217C282.945 79.5164 283.143 79.9118 283.427 80.0368C283.764 80.1845 284.085 80.0164 284.247 79.717C285.475 77.499 286.967 75.4356 288.668 73.5485C289.211 72.9607 288.232 72.1836 287.692 72.7806Z" fill="#9D9FA2"/>
<path d="M285.394 77.2087C286.031 78.2912 286.668 79.3737 287.305 80.4562C287.468 80.7361 287.936 80.7791 288.182 80.5862C288.468 80.3565 288.486 80.0168 288.312 79.7089C287.675 78.6264 287.038 77.5439 286.401 76.4614C286.238 76.1815 285.771 76.1385 285.524 76.3314C285.229 76.5647 285.211 76.9044 285.394 77.2087Z" fill="#9D9FA2"/>
<path d="M288.429 89.9217C287.837 90.5651 287.446 90.7116 287.182 90.7197C286.9 90.7283 286.61 90.5889 286.176 90.2945C286.095 90.2393 286.01 90.1796 285.922 90.1174C285.12 89.5531 284.017 88.776 282.312 89.1467C281.264 89.3746 280.542 89.926 279.989 90.5339C279.715 90.8341 279.481 91.1501 279.271 91.4432C279.222 91.5124 279.174 91.5796 279.128 91.6449C278.973 91.8641 278.832 92.0623 278.686 92.2444C278.453 92.5359 278.247 92.7334 278.033 92.847C277.837 92.9517 277.605 93.0002 277.281 92.9359C277.109 92.9018 276.907 92.8347 276.667 92.7212C275.604 91.7565 275.487 89.9317 276.355 88.0624C277.22 86.2005 278.996 84.4933 281.354 83.9773C281.463 83.9578 281.572 83.9413 281.682 83.9278C283.928 83.6492 286.192 84.6179 287.598 85.9768C288.299 86.6549 288.754 87.3984 288.906 88.0877C289.054 88.7567 288.923 89.3844 288.429 89.9217Z" stroke="#9D9FA2"/>
<path d="M268.506 78.8809C270.987 79.4053 273.396 80.215 275.704 81.2895C276.437 81.6263 276.937 80.4866 276.204 80.1498C273.805 79.0356 271.29 78.2026 268.704 77.6551C267.917 77.4794 267.722 78.7145 268.506 78.8809Z" fill="#9D9FA2"/>
<path d="M272.404 80.0116C272.668 81.2395 272.933 82.4674 273.197 83.6952C273.267 84.0115 273.522 84.309 273.887 84.2527C274.192 84.2089 274.516 83.9108 274.444 83.5629C274.18 82.335 273.915 81.1071 273.651 79.8792C273.581 79.563 273.326 79.2655 272.961 79.3218C272.656 79.3656 272.333 79.6637 272.404 80.0116Z" fill="#9D9FA2"/>
<path d="M287.691 72.7806C285.922 74.7377 284.384 76.9047 283.107 79.217C282.945 79.5164 283.142 79.9118 283.427 80.0368C283.764 80.1845 284.085 80.0164 284.247 79.717C285.475 77.499 286.967 75.4356 288.667 73.5485C289.211 72.9607 288.231 72.1836 287.691 72.7806Z" fill="#9D9FA2"/>
<path d="M285.394 77.2087C286.031 78.2912 286.668 79.3737 287.305 80.4562C287.467 80.7361 287.935 80.7791 288.182 80.5862C288.468 80.3565 288.486 80.0168 288.312 79.7089C287.675 78.6264 287.038 77.5439 286.401 76.4614C286.238 76.1815 285.77 76.1385 285.524 76.3314C285.228 76.5647 285.21 76.9044 285.394 77.2087Z" fill="#9D9FA2"/>
</svg>
